<svg width="23" height="10" xmlns="http://www.w3.org/2000/svg" xmlns:xlink="http://www.w3.org/1999/xlink" xmlns:svgjs="http://svgjs.com/svgjs" viewBox="0 0.296 23 9.408" fill="#526278"><svg xmlns="http://www.w3.org/2000/svg" width="23" height="10" viewBox="2 1.997 22 8.999"><path paint-order="stroke fill markers" fill-rule="evenodd" d="M2.296 7.473l-.008-.002h16.956l-.1 2.858a.29.29 0 0 0 0 .41l.172.173a.285.285 0 0 0 .204.084c.077 0 .15-.03.204-.083L23.916 6.7a.288.288 0 0 0 0-.408L19.724 2.08a.288.288 0 0 0-.204-.083c-.077 0-.15.03-.204.083l-.172.174a.285.285 0 0 0 0 .403l.113 2.865H2.292A.3.3 0 0 0 2 5.818v1.37c0 .159.137.285.296.285z"/></svg></svg>