<svg width="50" height="65" xmlns="http://www.w3.org/2000/svg" xmlns:xlink="http://www.w3.org/1999/xlink" xmlns:svgjs="http://svgjs.com/svgjs" viewBox="0.589 0 48.822 65" fill="#243f4d"><svg xmlns="http://www.w3.org/2000/svg" width="50" height="65" viewBox="2.043 2.043 48.038 63.957"><path paint-order="stroke fill markers" fill-rule="evenodd" d="M34.15 10.012c-6.97-3.555-15.365-2.196-20.89 3.382-6.422 6.482-7.064 16.819-1.495 24.043a.993.993 0 0 0 1.401.177c.435-.342.514-.976.175-1.415-4.952-6.423-4.38-15.615 1.331-21.38 4.914-4.96 12.38-6.17 18.577-3.008a.994.994 0 0 0 1.341-.445 1.012 1.012 0 0 0-.44-1.354zm7.972 8.05a.994.994 0 0 0-1.341-.445c-.492.25-.69.856-.441 1.353a16.276 16.276 0 0 1-2.982 18.75c-5.711 5.765-14.816 6.343-21.18 1.344a.992.992 0 0 0-1.4.176c-.34.44-.26 1.072.174 1.415 3.26 2.56 7.16 3.82 11.047 3.82 4.646 0 9.275-1.8 12.771-5.33a18.302 18.302 0 0 0 3.352-21.083zm-2.58-3.839a18.404 18.404 0 0 0-1.593-1.609.991.991 0 0 0-1.41.088 1.014 1.014 0 0 0 .087 1.423 16.5 16.5 0 0 1 1.42 1.433.993.993 0 0 0 1.41.088 1.014 1.014 0 0 0 .087-1.423zm10.04 13.854a3.448 3.448 0 0 0 0-3.575l-1.314-2.175a1.43 1.43 0 0 1-.188-.958l.391-2.51a3.434 3.434 0 0 0-1.359-3.311l-2.036-1.495a1.421 1.421 0 0 1-.538-.812l-.593-2.474a3.404 3.404 0 0 0-2.506-2.53l-2.45-.598a1.405 1.405 0 0 1-.805-.544L36.703 5.04a3.372 3.372 0 0 0-3.279-1.372l-2.488.395a1.397 1.397 0 0 1-.95-.19l-2.154-1.326a3.361 3.361 0 0 0-3.54 0l-2.155 1.326c-.283.174-.62.242-.949.19L18.7 3.668a3.372 3.372 0 0 0-3.279 1.371l-1.48 2.056a1.405 1.405 0 0 1-.806.543l-2.45.599a3.404 3.404 0 0 0-2.505 2.53l-.593 2.473a1.42 1.42 0 0 1-.54.812l-2.035 1.495a3.433 3.433 0 0 0-1.36 3.31l.392 2.512a1.43 1.43 0 0 1-.188.958l-1.314 2.175a3.448 3.448 0 0 0 0 3.575l1.314 2.174c.173.287.24.627.188.958l-.392 2.511a3.434 3.434 0 0 0 1.36 3.31l2.035 1.495c.27.198.46.486.539.813l.593 2.473a3.403 3.403 0 0 0 2.505 2.53l1.023.25-6.924 15.59c-.147.332-.106.718.107 1.01a.994.994 0 0 0 .923.404l5.571-.672 3.21 4.645a.997.997 0 0 0 .912.427 1 1 0 0 0 .818-.591l7.071-15.924.896.552a3.372 3.372 0 0 0 1.77.503c.613 0 1.225-.167 1.771-.503l.929-.572 7.08 15.944a1 1 0 0 0 .911.596c.325 0 .631-.16.819-.432l3.21-4.645 5.57.672a.995.995 0 0 0 .923-.404c.214-.292.254-.678.107-1.01l-6.927-15.599.984-.24a3.403 3.403 0 0 0 2.506-2.53l.593-2.473c.078-.327.27-.615.539-.813l2.036-1.495a3.433 3.433 0 0 0 1.359-3.31l-.391-2.512a1.43 1.43 0 0 1 .188-.958l1.314-2.174zm-34.36 34.878l-2.543-3.681a.994.994 0 0 0-.937-.425l-4.415.533 6.308-14.206c.115.086.219.188.304.307l1.481 2.055c.14.196.299.373.471.53l-3.32 7.478c-.226.507 0 1.104.503 1.331.132.06.271.089.407.089a.998.998 0 0 0 .912-.596l3.309-7.45c.325.045.66.044.997-.01l2.488-.395c.15-.024.3-.022.447.003l-6.411 14.437zm29.616-3.573l-4.415-.533a.995.995 0 0 0-.938.425l-2.543 3.681-6.414-14.443c.135-.018.272-.018.408.004l2.487.395c.35.055.7.054 1.037.003l3.311 7.456a.999.999 0 0 0 1.32.508c.503-.228.728-.825.502-1.332L36.26 48.04a3.5 3.5 0 0 0 .442-.5l1.481-2.056c.093-.13.208-.24.336-.33l6.319 14.228zm3.038-32.355l-1.313 2.175a3.465 3.465 0 0 0-.456 2.32l.391 2.513a1.417 1.417 0 0 1-.56 1.366L43.9 36.896a3.44 3.44 0 0 0-1.305 1.969l-.593 2.473c-.124.519-.52.919-1.034 1.044l-2.45.599a3.402 3.402 0 0 0-1.95 1.317l-1.482 2.055c-.311.433-.83.65-1.353.566l-2.488-.395a3.378 3.378 0 0 0-2.3.46l-2.153 1.326a1.387 1.387 0 0 1-1.462 0l-2.155-1.326a3.383 3.383 0 0 0-2.299-.46l-2.488.395a1.393 1.393 0 0 1-1.354-.566l-1.481-2.056a3.405 3.405 0 0 0-1.95-1.317l-2.45-.599a1.405 1.405 0 0 1-1.035-1.044l-.593-2.473a3.438 3.438 0 0 0-1.305-1.969L6.186 35.4a1.417 1.417 0 0 1-.561-1.366l.391-2.512a3.464 3.464 0 0 0-.455-2.32l-1.314-2.175a1.423 1.423 0 0 1 0-1.476l1.314-2.175c.419-.693.58-1.518.456-2.32l-.392-2.512a1.418 1.418 0 0 1 .561-1.367l2.037-1.495a3.44 3.44 0 0 0 1.304-1.969l.593-2.473c.125-.519.521-.918 1.035-1.044l2.45-.598a3.404 3.404 0 0 0 1.95-1.318l1.481-2.055c.312-.432.83-.65 1.354-.566l2.487.395a3.375 3.375 0 0 0 2.3-.46l2.154-1.326a1.387 1.387 0 0 1 1.461 0l2.155 1.326a3.375 3.375 0 0 0 2.299.46l2.489-.395a1.392 1.392 0 0 1 1.353.566l1.481 2.056a3.402 3.402 0 0 0 1.95 1.317l2.45.599c.514.125.91.525 1.035 1.044l.593 2.473c.19.791.653 1.49 1.305 1.97l2.036 1.494c.428.314.643.838.56 1.367l-.39 2.51a3.464 3.464 0 0 0 .455 2.322l1.313 2.174c.275.455.275 1.02 0 1.476zm-10.13-3.874a1.79 1.79 0 0 0-1.504-1.246l-6.008-.719-2.534-5.546a1.785 1.785 0 0 0-1.638-1.058c-.713 0-1.34.406-1.639 1.058l-2.534 5.546-6.008.72a1.79 1.79 0 0 0-1.503 1.245 1.815 1.815 0 0 0 .49 1.9l4.442 4.146-1.179 5.99a1.811 1.811 0 0 0 .71 1.829c.318.233.687.351 1.058.351.302 0 .605-.078.883-.235l5.28-2.983 5.279 2.983a1.773 1.773 0 0 0 1.941-.116 1.812 1.812 0 0 0 .71-1.828l-1.18-5.99 4.442-4.147a1.814 1.814 0 0 0 .491-1.9zm-6.7 4.95a1.015 1.015 0 0 0-.3.936l1.206 6.13-5.403-3.053a.99.99 0 0 0-.975 0L20.17 35.17l1.207-6.13a1.014 1.014 0 0 0-.302-.937l-4.545-4.243 6.148-.736a.999.999 0 0 0 .79-.578l2.593-5.675 2.593 5.675a.999.999 0 0 0 .789.578l6.148.736-4.545 4.243z"/></svg></svg>