<svg width="24" height="16" xmlns="http://www.w3.org/2000/svg" xmlns:xlink="http://www.w3.org/1999/xlink" xmlns:svgjs="http://svgjs.com/svgjs" viewBox="0 0.405 24 15.189"><svg xmlns="http://www.w3.org/2000/svg" width="24" height="16" viewBox="2 1.56 22.692 14.361"><path d="M8.751 15.91c-1.409-.083-2.69-.525-3.823-1.36-1.462-1.078-2.383-2.514-2.77-4.29a6.496 6.496 0 0 1-.138-1.933 7.041 7.041 0 0 1 1.62-4.101c1.018-1.25 2.315-2.065 3.865-2.458a5.77 5.77 0 0 1 1.19-.187c.227-.007.455-.021.683-.021a6.741 6.741 0 0 1 3.398.932c.7.4 1.098.808 1.27.932-.717.705-1.405 1.395-2.108 2.086-.522-.45-1.099-.863-2.099-1.015a4.258 4.258 0 0 0-.613-.045C7.22 4.45 5.538 5.9 5.09 7.803a3.941 3.941 0 0 0-.1 1.298c.153 1.768 1.336 3.218 2.935 3.736.407.128.83.189 1.254.189.1 0 .198-.003.298-.01.753-.048 1.458-.248 2.098-.67 1.075-.732 1.423-1.878 1.425-2.162H9.154l.02-2.768.008-.117h6.754c.364 2.106.036 4.322-1.275 6.055-.907 1.195-2.114 1.948-3.554 2.321a7.744 7.744 0 0 1-2.356.235zm13.33-4.054H20.26h-.07l.001-.07.019-2.43h-2.43-.077V9.28l.015-1.816v-.07H20.223l.02-2.436v-.07H22.204v.07l-.02 2.437h2.507v.07l-.014 1.815v.076H24.6h-2.43l-.02 2.43v.07h-.07z"/></svg></svg>