<svg width="45" height="41" xmlns="http://www.w3.org/2000/svg" xmlns:xlink="http://www.w3.org/1999/xlink" xmlns:svgjs="http://svgjs.com/svgjs" viewBox="0 0.092 45 40.815" fill="#a3bbc8"><svg xmlns="http://www.w3.org/2000/svg" width="45" height="41" viewBox="1.014 1.33 43.118 39.109"><path paint-order="stroke fill markers" fill-rule="evenodd" d="M38.87 10.648V3.522c0-.785-.394-1.49-1.052-1.887a2.07 2.07 0 0 0-2.127-.021c-6.402 3.677-13.367 5.825-20.7 6.383-.056.004-6.684.034-6.684.034-1.665 0-3.04 1.291-3.231 2.949h-1.36c-1.49 0-2.702 1.245-2.702 2.774v6.096c0 1.53 1.212 2.774 2.701 2.774h1.36a3.342 3.342 0 0 0 1.92 2.664l4.84 13.723a2.123 2.123 0 0 0 1.986 1.428h4.858c.689 0 1.336-.346 1.731-.925.395-.58.49-1.323.255-1.986l-4.159-11.785c6.778.724 13.225 2.82 19.185 6.244.33.19.688.283 1.046.283.372 0 .744-.101 1.08-.304a2.18 2.18 0 0 0 1.052-1.887v-7.126c2.965-.394 5.263-3.002 5.263-6.153 0-3.15-2.298-5.758-5.262-6.152zM5.052 20.484H3.715a.627.627 0 0 1-.618-.634v-6.096c0-.35.278-.634.618-.634h1.337v7.364zm2.777 2.844a1.205 1.205 0 0 1-.693-1.098V11.374c0-.663.525-1.203 1.17-1.203h5.671v13.262s-5.72-.002-5.745-.004a1.065 1.065 0 0 1-.403-.101zm10.878 14.93c.003.009.006.015-.004.028-.009.013-.015.013-.024.013h-4.858a.03.03 0 0 1-.027-.018L9.31 25.573h4.92l4.477 12.685zm18.08-8.179c0 .015 0 .028-.023.041-.027.016-.043.007-.056 0-6.403-3.678-13.345-5.886-20.648-6.57V10.052c7.303-.686 14.245-2.893 20.648-6.571.013-.007.03-.016.056 0 .022.013.022.025.022.04V30.08zm2.083-9.292v-7.974c1.81.373 3.179 2.02 3.179 3.987 0 1.968-1.369 3.614-3.18 3.987z"/></svg></svg>