<?xml version="1.0" encoding="utf-8"?><!DOCTYPE svg PUBLIC "-//W3C//DTD SVG 1.1//EN" "http://www.w3.org/Graphics/SVG/1.1/DTD/svg11.dtd"><svg viewBox="0 0 971.986 1010" xmlns="http://www.w3.org/2000/svg" xmlns:xlink="http://www.w3.org/1999/xlink"><style>:root>svg{display:none}:root>svg:target{display:block}</style><svg viewBox="0 0 22 9" id="arrow" xmlns="http://www.w3.org/2000/svg"><defs><style>.aacls-1{fill:#fff;fill-rule:evenodd}</style></defs><path class="aacls-1" d="M.3 5.472h16.948l-.1 2.857a.292.292 0 000 .41l.172.172a.28.28 0 00.2.086.285.285 0 00.2-.084l4.193-4.211A.292.292 0 0022 4.5a.283.283 0 00-.084-.2L17.723.087a.289.289 0 00-.407 0l-.172.173a.287.287 0 00-.084.2.278.278 0 00.084.2l.113 2.865H.292A.3.3 0 000 3.82v1.37a.292.292 0 00.3.282z"/></svg><svg xmlns:svgjs="http://svgjs.com/svgjs" viewBox="0 0.296 23 9.409" fill="#a3bbc8" id="arrow-left" xmlns="http://www.w3.org/2000/svg"><svg width="23" height="10" viewBox="2 1.003 22 8.999"><path paint-order="stroke fill markers" fill-rule="evenodd" d="M23.704 4.526l.008.003H6.756l.1-2.859a.29.29 0 000-.41l-.172-.173a.287.287 0 00-.407 0L2.083 5.298a.288.288 0 000 .409L6.276 9.92a.288.288 0 00.204.083.29.29 0 00.204-.083l.172-.174a.285.285 0 000-.404l-.113-2.864h16.965A.3.3 0 0024 6.18V4.81a.293.293 0 00-.296-.285z"/></svg></svg><svg xmlns:svgjs="http://svgjs.com/svgjs" viewBox="0 0.296 23 9.408" fill="#526278" id="arrow-reply" xmlns="http://www.w3.org/2000/svg"><svg width="23" height="10" viewBox="2 1.997 22 8.999"><path paint-order="stroke fill markers" fill-rule="evenodd" d="M2.296 7.473l-.008-.002h16.956l-.1 2.858a.29.29 0 000 .41l.172.173a.285.285 0 00.204.084.29.29 0 00.204-.083L23.916 6.7a.288.288 0 000-.408L19.724 2.08a.288.288 0 00-.204-.083.29.29 0 00-.204.083l-.172.174a.285.285 0 000 .403l.113 2.865H2.292A.3.3 0 002 5.818v1.37c0 .159.137.285.296.285z"/></svg></svg><svg xmlns:svgjs="http://svgjs.com/svgjs" viewBox="0 0.296 23 9.408" fill="#a3bbc8" id="arrow-right" xmlns="http://www.w3.org/2000/svg"><svg width="23" height="10" viewBox="2 1.997 22 8.999"><path paint-order="stroke fill markers" fill-rule="evenodd" d="M2.296 7.473l-.008-.002h16.956l-.1 2.858a.29.29 0 000 .41l.172.173a.285.285 0 00.204.084.29.29 0 00.204-.083L23.916 6.7a.288.288 0 000-.408L19.724 2.08a.288.288 0 00-.204-.083.29.29 0 00-.204.083l-.172.174a.285.285 0 000 .403l.113 2.865H2.292A.3.3 0 002 5.818v1.37c0 .159.137.285.296.285z"/></svg></svg><svg xmlns:svgjs="http://svgjs.com/svgjs" viewBox="0 0.212 44 42.575" fill="#a3bbc8" id="awards" xmlns="http://www.w3.org/2000/svg"><svg width="44" height="43" viewBox="1.363 1.755 41.767 40.414"><path paint-order="stroke fill markers" fill-rule="evenodd" d="M13.903 33.695c0-1.313.296-2.56.825-3.67L1.509 9.577a.918.918 0 01.116-1.14L7.943 2.02a.885.885 0 01.631-.266H35.92a.88.88 0 01.63.266l6.32 6.418a.92.92 0 01.115 1.14l-13.22 20.446a8.53 8.53 0 01.824 3.67c0 4.673-3.743 8.475-8.342 8.475-4.6 0-8.344-3.802-8.344-8.475zm1.785 0c0 3.674 2.942 6.662 6.559 6.662 3.615 0 6.557-2.988 6.557-6.662 0-3.672-2.942-6.661-6.557-6.661-3.617 0-6.559 2.989-6.559 6.661zm8.549-8.23a8.344 8.344 0 014.477 2.884l11.87-18.362h-6.339L24.237 25.465zm-8.458 2.883a8.347 8.347 0 014.477-2.883L10.247 9.987H3.91l11.87 18.36zm6.454-3.127h.027l9.85-15.234H12.382l9.85 15.234zM4.41 8.174h35.674l-4.535-4.606H8.943L4.41 8.174zm17.247 28.919V32.19h-.526a.9.9 0 01-.892-.906.9.9 0 01.892-.908h1.419a.9.9 0 01.892.908v5.808a.9.9 0 01-.892.906.9.9 0 01-.893-.906z"/></svg></svg><svg viewBox="0 0 18.94 16.969" id="basket" xmlns="http://www.w3.org/2000/svg"><defs><style>.afcls-1{fill:#243f4d;fill-rule:evenodd}</style></defs><path class="afcls-1" d="M5.53 16.978a2.074 2.074 0 110-4.147 2.056 2.056 0 011.46.6 2.03 2.03 0 01.61 1.466 2.071 2.071 0 01-2.07 2.081zm0-2.963a.889.889 0 10.34 1.71.9.9 0 00.55-.824.92.92 0 00-.26-.629.9.9 0 00-.63-.257zm8.39 2.963a2.045 2.045 0 01-1.46-.607 2.068 2.068 0 011.46-3.54 1.953 1.953 0 011.47.6 2.085 2.085 0 01-.67 3.383 2.093 2.093 0 01-.8.164zm0-2.963a.978.978 0 00-.82.548.887.887 0 001.16 1.161.891.891 0 00.29-1.452.9.9 0 00-.63-.257zm-11.27.164a.562.562 0 01-.25-.056.59.59 0 01-.29-.787 3.686 3.686 0 013.05-2.151L4.11 5.794a.591.591 0 111.16-.228l1.09 5.578h9.43l1.8-6.771H4.29A4.346 4.346 0 01.01.68.587.587 0 01.5.007a.6.6 0 01.68.5 3.159 3.159 0 003.11 2.682h14.07a.582.582 0 01.47.232.594.594 0 01.11.513l-2.13 7.956a.59.59 0 01-.57.44H5.88a.03.03 0 00-.02 0 2.66 2.66 0 00-2.68 1.51.586.586 0 01-.53.338z"/></svg><svg xmlns:svgjs="http://svgjs.com/svgjs" viewBox="0.589 0 48.822 65" fill="#243f4d" id="brands" xmlns="http://www.w3.org/2000/svg"><svg width="50" height="65" viewBox="2.043 2.043 48.038 63.957"><path paint-order="stroke fill markers" fill-rule="evenodd" d="M34.15 10.012c-6.97-3.555-15.365-2.196-20.89 3.382-6.422 6.482-7.064 16.819-1.495 24.043a.993.993 0 001.401.177c.435-.342.514-.976.175-1.415-4.952-6.423-4.38-15.615 1.331-21.38 4.914-4.96 12.38-6.17 18.577-3.008a.994.994 0 001.341-.445 1.012 1.012 0 00-.44-1.354zm7.972 8.05a.994.994 0 00-1.341-.445 1.01 1.01 0 00-.441 1.353 16.276 16.276 0 01-2.982 18.75c-5.711 5.765-14.816 6.343-21.18 1.344a.992.992 0 00-1.4.176c-.34.44-.26 1.072.174 1.415 3.26 2.56 7.16 3.82 11.047 3.82 4.646 0 9.275-1.8 12.771-5.33a18.302 18.302 0 003.352-21.083zm-2.58-3.839a18.404 18.404 0 00-1.593-1.609.991.991 0 00-1.41.088 1.014 1.014 0 00.087 1.423 16.5 16.5 0 011.42 1.433.993.993 0 001.41.088 1.014 1.014 0 00.087-1.423zm10.04 13.854a3.448 3.448 0 000-3.575l-1.314-2.175a1.43 1.43 0 01-.188-.958l.391-2.51a3.434 3.434 0 00-1.359-3.311l-2.036-1.495a1.421 1.421 0 01-.538-.812l-.593-2.474a3.404 3.404 0 00-2.506-2.53l-2.45-.598a1.405 1.405 0 01-.805-.544L36.703 5.04a3.372 3.372 0 00-3.279-1.372l-2.488.395a1.397 1.397 0 01-.95-.19l-2.154-1.326a3.361 3.361 0 00-3.54 0l-2.155 1.326c-.283.174-.62.242-.949.19L18.7 3.668a3.372 3.372 0 00-3.279 1.371l-1.48 2.056a1.405 1.405 0 01-.806.543l-2.45.599a3.404 3.404 0 00-2.505 2.53l-.593 2.473a1.42 1.42 0 01-.54.812l-2.035 1.495a3.433 3.433 0 00-1.36 3.31l.392 2.512a1.43 1.43 0 01-.188.958l-1.314 2.175a3.448 3.448 0 000 3.575l1.314 2.174c.173.287.24.627.188.958l-.392 2.511a3.434 3.434 0 001.36 3.31l2.035 1.495c.27.198.46.486.539.813l.593 2.473a3.403 3.403 0 002.505 2.53l1.023.25-6.924 15.59c-.147.332-.106.718.107 1.01a.994.994 0 00.923.404l5.571-.672 3.21 4.645a.997.997 0 00.912.427 1 1 0 00.818-.591l7.071-15.924.896.552a3.372 3.372 0 001.77.503c.613 0 1.225-.167 1.771-.503l.929-.572 7.08 15.944a1 1 0 00.911.596c.325 0 .631-.16.819-.432l3.21-4.645 5.57.672a.995.995 0 00.923-.404c.214-.292.254-.678.107-1.01l-6.927-15.599.984-.24a3.403 3.403 0 002.506-2.53l.593-2.473a1.42 1.42 0 01.539-.813l2.036-1.495a3.433 3.433 0 001.359-3.31l-.391-2.512a1.43 1.43 0 01.188-.958l1.314-2.174zm-34.36 34.878l-2.543-3.681a.994.994 0 00-.937-.425l-4.415.533 6.308-14.206c.115.086.219.188.304.307l1.481 2.055c.14.196.299.373.471.53l-3.32 7.478a1.01 1.01 0 00.91 1.42.998.998 0 00.912-.596l3.309-7.45c.325.045.66.044.997-.01l2.488-.395c.15-.024.3-.022.447.003l-6.411 14.437zm29.616-3.573l-4.415-.533a.995.995 0 00-.938.425l-2.543 3.681-6.414-14.443c.135-.018.272-.018.408.004l2.487.395c.35.055.7.054 1.037.003l3.311 7.456a.999.999 0 001.32.508c.503-.228.728-.825.502-1.332L36.26 48.04a3.5 3.5 0 00.442-.5l1.481-2.056c.093-.13.208-.24.336-.33l6.319 14.228zm3.038-32.355l-1.313 2.175a3.465 3.465 0 00-.456 2.32l.391 2.513a1.417 1.417 0 01-.56 1.366L43.9 36.896a3.44 3.44 0 00-1.305 1.969l-.593 2.473c-.124.519-.52.919-1.034 1.044l-2.45.599a3.402 3.402 0 00-1.95 1.317l-1.482 2.055c-.311.433-.83.65-1.353.566l-2.488-.395a3.378 3.378 0 00-2.3.46l-2.153 1.326a1.387 1.387 0 01-1.462 0l-2.155-1.326a3.383 3.383 0 00-2.299-.46l-2.488.395a1.393 1.393 0 01-1.354-.566l-1.481-2.056a3.405 3.405 0 00-1.95-1.317l-2.45-.599a1.405 1.405 0 01-1.035-1.044l-.593-2.473a3.438 3.438 0 00-1.305-1.969L6.186 35.4a1.417 1.417 0 01-.561-1.366l.391-2.512a3.464 3.464 0 00-.455-2.32l-1.314-2.175a1.423 1.423 0 010-1.476l1.314-2.175c.419-.693.58-1.518.456-2.32l-.392-2.512a1.418 1.418 0 01.561-1.367l2.037-1.495a3.44 3.44 0 001.304-1.969l.593-2.473a1.406 1.406 0 011.035-1.044l2.45-.598a3.404 3.404 0 001.95-1.318l1.481-2.055c.312-.432.83-.65 1.354-.566l2.487.395a3.375 3.375 0 002.3-.46l2.154-1.326a1.387 1.387 0 011.461 0l2.155 1.326a3.375 3.375 0 002.299.46l2.489-.395a1.392 1.392 0 011.353.566l1.481 2.056a3.402 3.402 0 001.95 1.317l2.45.599c.514.125.91.525 1.035 1.044l.593 2.473c.19.791.653 1.49 1.305 1.97l2.036 1.494c.428.314.643.838.56 1.367l-.39 2.51a3.464 3.464 0 00.455 2.322l1.313 2.174c.275.455.275 1.02 0 1.476zm-10.13-3.874a1.79 1.79 0 00-1.504-1.246l-6.008-.719-2.534-5.546a1.785 1.785 0 00-1.638-1.058c-.713 0-1.34.406-1.639 1.058l-2.534 5.546-6.008.72a1.79 1.79 0 00-1.503 1.245 1.815 1.815 0 00.49 1.9l4.442 4.146-1.179 5.99a1.811 1.811 0 00.71 1.829c.318.233.687.351 1.058.351.302 0 .605-.078.883-.235l5.28-2.983 5.279 2.983a1.773 1.773 0 001.941-.116 1.812 1.812 0 00.71-1.828l-1.18-5.99 4.442-4.147a1.814 1.814 0 00.491-1.9zm-6.7 4.95a1.015 1.015 0 00-.3.936l1.206 6.13-5.403-3.053a.99.99 0 00-.975 0L20.17 35.17l1.207-6.13a1.014 1.014 0 00-.302-.937L16.53 23.86l6.148-.736a.999.999 0 00.79-.578l2.593-5.675 2.593 5.675a.999.999 0 00.789.578l6.148.736-4.545 4.243z"/></svg></svg><svg viewBox="0 0 22 9" id="button-arrow" xmlns="http://www.w3.org/2000/svg"><defs><style>.ahcls-1{fill:#fff;fill-rule:evenodd}</style></defs><path class="ahcls-1" d="M.3 5.472h16.948l-.1 2.857a.292.292 0 000 .41l.172.172a.28.28 0 00.2.086.285.285 0 00.2-.084l4.193-4.211A.292.292 0 0022 4.5a.283.283 0 00-.084-.2L17.723.087a.289.289 0 00-.407 0l-.172.173a.287.287 0 00-.084.2.278.278 0 00.084.2l.113 2.865H.292A.3.3 0 000 3.82v1.37a.292.292 0 00.3.282z"/></svg><svg fill="#243f4d" viewBox="0 0 45.701 45.7" id="checkbox" xmlns="http://www.w3.org/2000/svg"><path d="M20.687 38.332a5.308 5.308 0 01-7.505 0L1.554 26.704A5.306 5.306 0 119.059 19.2l6.928 6.927a1.344 1.344 0 001.896 0L36.642 7.368a5.308 5.308 0 017.505 7.504l-23.46 23.46z"/></svg><svg xmlns:svgjs="http://svgjs.com/svgjs" viewBox="0.148 0 31.704 45" id="contact-address" xmlns="http://www.w3.org/2000/svg"><svg width="32" height="45" viewBox="2 1.999 31 44.001"><path paint-order="stroke fill markers" fill-rule="evenodd" d="M16.597 45.81l-6.584-2.918-5.674 2.51a1.652 1.652 0 01-1.864-.355c-.49-.5-.613-1.23-.313-1.862l4.994-10.516a1.107 1.107 0 011.986-.023 1.1 1.1 0 01-.014 1.01L4.785 42.8l4.32-1.914a2.227 2.227 0 011.806.001l6.583 2.916h.011l6.585-2.917a2.222 2.222 0 011.804 0l4.32 1.914-4.342-9.145a1.093 1.093 0 01.174-1.275 1.107 1.107 0 011.798.288l4.994 10.518c.3.63.177 1.36-.313 1.86a1.648 1.648 0 01-1.863.356l-5.665-2.51-6.594 2.917a2.22 2.22 0 01-1.806 0zm-1.947-7.6L5.102 22.283A13.892 13.892 0 013.54 15.81c.023-3.642 1.464-7.083 4.06-9.689a13.903 13.903 0 019.702-4.12 13.897 13.897 0 019.999 4 13.76 13.76 0 014.158 9.893 13.691 13.691 0 01-1.562 6.39L20.349 38.21a3.293 3.293 0 01-2.849 1.61 3.294 3.294 0 01-2.85-1.61zm2.683-34.012C10.983 4.285 5.785 9.5 5.747 15.823a11.525 11.525 0 001.269 5.366l9.53 15.896c.29.487.764.54.954.54.19 0 .663-.053.955-.54l9.528-15.896a11.526 11.526 0 001.27-5.295 11.59 11.59 0 00-3.501-8.33 11.694 11.694 0 00-8.42-3.366zm-4.884 11.696c0-2.772 2.266-5.026 5.051-5.026s5.05 2.254 5.05 5.026c0 2.773-2.265 5.027-5.05 5.027-2.785 0-5.05-2.254-5.05-5.027zm2.206 0a2.842 2.842 0 002.845 2.832 2.84 2.84 0 002.844-2.832 2.84 2.84 0 00-2.844-2.83 2.841 2.841 0 00-2.845 2.83z"/></svg></svg><svg xmlns:svgjs="http://svgjs.com/svgjs" viewBox="0 0.406 38 45.188" id="contact-phone" xmlns="http://www.w3.org/2000/svg"><svg width="38" height="46" viewBox="2 1.918 37 43.999"><path paint-order="stroke fill markers" fill-rule="evenodd" d="M15.44 40.922c0-2.754 2.27-4.995 5.06-4.995 2.79 0 5.06 2.241 5.06 4.995 0 2.755-2.27 4.995-5.06 4.995-2.79 0-5.06-2.24-5.06-4.995zm1.975 0c0 1.68 1.384 3.045 3.084 3.045 1.701 0 3.086-1.366 3.086-3.045 0-1.679-1.385-3.045-3.086-3.045-1.7 0-3.084 1.366-3.084 3.045zM28.88 29.586c0-2.755 2.27-4.995 5.06-4.995 2.789 0 5.059 2.24 5.059 4.995 0 2.754-2.27 4.995-5.06 4.995-2.79 0-5.059-2.241-5.059-4.995zm1.976 0c0 1.68 1.383 3.046 3.084 3.046 1.7 0 3.084-1.367 3.084-3.046 0-1.68-1.384-3.046-3.084-3.046-1.701 0-3.084 1.367-3.084 3.046zm-15.417 0c0-2.755 2.27-4.995 5.06-4.995 2.79 0 5.06 2.24 5.06 4.995 0 2.754-2.27 4.995-5.06 4.995-2.79 0-5.06-2.241-5.06-4.995zm1.975 0c0 1.68 1.384 3.046 3.084 3.046 1.701 0 3.086-1.367 3.086-3.046 0-1.68-1.385-3.046-3.086-3.046-1.7 0-3.084 1.367-3.084 3.046zM2 29.586c0-2.755 2.27-4.995 5.059-4.995 2.79 0 5.06 2.24 5.06 4.995 0 2.754-2.27 4.995-5.06 4.995-2.79 0-5.06-2.241-5.06-4.995zm1.974 0c0 1.68 1.384 3.046 3.085 3.046 1.7 0 3.084-1.367 3.084-3.046 0-1.68-1.383-3.046-3.084-3.046s-3.085 1.367-3.085 3.046zm24.907-11.337c0-2.754 2.27-4.995 5.06-4.995 2.789 0 5.059 2.241 5.059 4.995 0 2.755-2.27 4.995-5.06 4.995-2.79 0-5.059-2.24-5.059-4.995zm1.976 0c0 1.68 1.383 3.045 3.084 3.045 1.7 0 3.084-1.365 3.084-3.045 0-1.679-1.384-3.045-3.084-3.045-1.701 0-3.084 1.366-3.084 3.045zm-15.417 0c0-2.754 2.27-4.995 5.06-4.995 2.79 0 5.06 2.241 5.06 4.995 0 2.755-2.27 4.995-5.06 4.995-2.79 0-5.06-2.24-5.06-4.995zm1.975 0c0 1.68 1.384 3.045 3.084 3.045 1.701 0 3.086-1.365 3.086-3.045 0-1.679-1.385-3.045-3.086-3.045-1.7 0-3.084 1.366-3.084 3.045zM2 18.249c0-2.754 2.27-4.995 5.059-4.995 2.79 0 5.06 2.241 5.06 4.995 0 2.755-2.27 4.995-5.06 4.995-2.79 0-5.06-2.24-5.06-4.995zm1.974 0c0 1.68 1.384 3.045 3.085 3.045 1.7 0 3.084-1.365 3.084-3.045 0-1.679-1.383-3.045-3.084-3.045s-3.085 1.366-3.085 3.045zM28.881 6.913c0-2.755 2.27-4.995 5.06-4.995C36.73 1.918 39 4.158 39 6.913c0 2.754-2.27 4.995-5.06 4.995-2.79 0-5.059-2.24-5.059-4.995zm1.976 0c0 1.68 1.383 3.046 3.084 3.046 1.7 0 3.084-1.367 3.084-3.046 0-1.68-1.384-3.046-3.084-3.046-1.701 0-3.084 1.367-3.084 3.046zm-15.417 0c0-2.755 2.27-4.995 5.06-4.995 2.79 0 5.06 2.24 5.06 4.995 0 2.754-2.27 4.995-5.06 4.995-2.79 0-5.06-2.24-5.06-4.995zm1.975 0c0 1.68 1.384 3.046 3.084 3.046 1.701 0 3.086-1.367 3.086-3.046 0-1.68-1.385-3.046-3.086-3.046-1.7 0-3.084 1.367-3.084 3.046zM2 6.913c0-2.755 2.27-4.995 5.059-4.995 2.79 0 5.06 2.24 5.06 4.995 0 2.754-2.27 4.995-5.06 4.995-2.79 0-5.06-2.24-5.06-4.995zm1.974 0c0 1.68 1.384 3.046 3.085 3.046 1.7 0 3.084-1.367 3.084-3.046 0-1.68-1.383-3.046-3.084-3.046S3.974 5.234 3.974 6.913z"/></svg></svg><svg viewBox="0 0 100.353 100.353" id="date" xmlns="http://www.w3.org/2000/svg"><path d="M32.286 42.441h-9.762a1.5 1.5 0 00-1.5 1.5v9.762a1.5 1.5 0 001.5 1.5h9.762a1.5 1.5 0 001.5-1.5v-9.762a1.5 1.5 0 00-1.5-1.5zm-1.5 9.762h-6.762v-6.762h6.762v6.762zM55.054 42.441h-9.762a1.5 1.5 0 00-1.5 1.5v9.762a1.5 1.5 0 001.5 1.5h9.762a1.5 1.5 0 001.5-1.5v-9.762a1.5 1.5 0 00-1.5-1.5zm-1.5 9.762h-6.762v-6.762h6.762v6.762zM77.12 42.441h-9.762a1.5 1.5 0 00-1.5 1.5v9.762a1.5 1.5 0 001.5 1.5h9.762a1.5 1.5 0 001.5-1.5v-9.762a1.5 1.5 0 00-1.5-1.5zm-1.5 9.762h-6.762v-6.762h6.762v6.762zM32.286 64.677h-9.762a1.5 1.5 0 00-1.5 1.5v9.762a1.5 1.5 0 001.5 1.5h9.762a1.5 1.5 0 001.5-1.5v-9.762a1.5 1.5 0 00-1.5-1.5zm-1.5 9.762h-6.762v-6.762h6.762v6.762zM55.054 64.677h-9.762a1.5 1.5 0 00-1.5 1.5v9.762a1.5 1.5 0 001.5 1.5h9.762a1.5 1.5 0 001.5-1.5v-9.762a1.5 1.5 0 00-1.5-1.5zm-1.5 9.762h-6.762v-6.762h6.762v6.762zM77.12 64.677h-9.762a1.5 1.5 0 00-1.5 1.5v9.762a1.5 1.5 0 001.5 1.5h9.762a1.5 1.5 0 001.5-1.5v-9.762a1.5 1.5 0 00-1.5-1.5zm-1.5 9.762h-6.762v-6.762h6.762v6.762z"/><path d="M89 13.394h-9.907c-.013 0-.024.003-.037.004V11.4c0-3.268-2.658-5.926-5.926-5.926s-5.926 2.659-5.926 5.926v1.994H56.041V11.4c0-3.268-2.658-5.926-5.926-5.926s-5.926 2.659-5.926 5.926v1.994H33.025V11.4c0-3.268-2.658-5.926-5.926-5.926s-5.926 2.659-5.926 5.926v1.995l-.015-.001h-9.905a1.5 1.5 0 00-1.5 1.5V92.64a1.5 1.5 0 001.5 1.5H89a1.5 1.5 0 001.5-1.5V14.894a1.5 1.5 0 00-1.5-1.5zM70.204 11.4c0-1.614 1.312-2.926 2.926-2.926s2.926 1.312 2.926 2.926v8.277c0 1.613-1.312 2.926-2.926 2.926s-2.926-1.312-2.926-2.926V11.4zM50.115 8.474a2.93 2.93 0 012.926 2.926v8.277a2.93 2.93 0 01-2.926 2.926 2.929 2.929 0 01-2.926-2.926v-4.643c.004-.047.014-.092.014-.141s-.01-.094-.014-.141V11.4a2.929 2.929 0 012.926-2.926zM24.173 11.4a2.929 2.929 0 012.926-2.926 2.93 2.93 0 012.926 2.926v8.277a2.93 2.93 0 01-2.926 2.926 2.929 2.929 0 01-2.926-2.926V11.4zM87.5 91.14H12.753V16.394h8.405l.015-.001v3.285c0 3.268 2.659 5.926 5.926 5.926s5.926-2.658 5.926-5.926v-3.283h11.164v3.283c0 3.268 2.659 5.926 5.926 5.926s5.926-2.658 5.926-5.926v-3.283h11.163v3.283c0 3.268 2.658 5.926 5.926 5.926s5.926-2.658 5.926-5.926V16.39c.013 0 .024.004.037.004H87.5V91.14z"/></svg><svg id="delivery" data-name="Группа 2" viewBox="0 0 53.75 36.44" xmlns="http://www.w3.org/2000/svg"><defs><style>.amcls-1,.amcls-2{fill:#a3bbc8}.amcls-1{fill-rule:evenodd}.amcls-2{opacity:.34}</style></defs><path id="amdelivery-truck" class="amcls-1" d="M812.816 1025.33h-6.126a.79.79 0 000 1.58h6.126a.79.79 0 000-1.58zm.524 11.01h-5.6a.785.785 0 100 1.57h5.6a.785.785 0 100-1.57zm-2.094-4.72H804.6a.79.79 0 000 1.58h6.65a.79.79 0 00-.004-1.58zm0 11.01h-.646a.785.785 0 100 1.57h.644a.785.785 0 10.002-1.57zm-3.263 0H804.6a.785.785 0 100 1.57h3.387a.785.785 0 10-.004-1.57zm36.86-19.86h-6.657v-1.42a.784.784 0 00-.786-.78h-12.175a.785.785 0 100 1.57h11.39v17.22a.786.786 0 101.571 0v-15.02h6.657a6.519 6.519 0 016.509 6.52v13.29h-2a4.974 4.974 0 00-9.824 0h-1.345v-1.12a.786.786 0 10-1.571 0v1.12h-8.336a4.974 4.974 0 00-9.823 0h-1.634v-22.01h5.261a.785.785 0 100-1.57h-6.046a.783.783 0 00-.785.78v23.59a.791.791 0 00.785.79h2.419a4.974 4.974 0 009.823 0h11.252a4.974 4.974 0 009.824 0h2.782a.791.791 0 00.785-.79v-14.08a8.094 8.094 0 00-8.076-8.09zm-21.475 25.58a3.41 3.41 0 113.4-3.41 3.411 3.411 0 01-3.4 3.41zm21.075 0a3.411 3.411 0 01-3.4-3.41 3.4 3.4 0 113.4 3.41zm.4-22.44h-4.3a.791.791 0 00-.785.79v7.39a.791.791 0 00.785.79H849a.792.792 0 00.786-.79v-3.23a4.949 4.949 0 00-4.943-4.95zm3.367 7.39h-6.882v-5.81h3.515a3.371 3.371 0 013.367 3.37v2.44zm-24.842 9.61a2.03 2.03 0 102.024 2.03 2.029 2.029 0 00-2.024-2.03zm0 2.49a.46.46 0 01-.455-.46.455.455 0 01.909 0 .46.46 0 01-.454.46zm21.075-2.49a2.03 2.03 0 102.025 2.03 2.03 2.03 0 00-2.025-2.03zm0 2.49a.46.46 0 01-.454-.46.454.454 0 01.908 0 .46.46 0 01-.454.46zm4.552-8.37a.783.783 0 00-.785.78v1.99a.786.786 0 101.571 0v-1.99a.784.784 0 00-.781-.78z" transform="translate(-803.812 -1020.56)"/><circle class="amcls-2" cx="43.938" cy="26.645" r="9.812"/></svg><svg xmlns:svgjs="http://svgjs.com/svgjs" viewBox="0.53 0 8.94 17" id="facebook" xmlns="http://www.w3.org/2000/svg"><svg width="10" height="17" viewBox="1.103 1.125 8.116 15.432"><path paint-order="stroke fill markers" fill-rule="evenodd" d="M7.19 1.125c.413 0 .828.022 1.24.04.268.011.537.05.789.077l-.02 2.485h-.197c-.272 0-.545-.003-.818-.003a17.9 17.9 0 00-.613.008c-.659.022-1.144.27-1.177 1.092-.021.592-.036 1.9-.037 1.97l1.34.001c.327 0 .647 0 .87-.002H9.1c-.133.955-.255 1.87-.388 2.792H6.357l-.053 6.971h-2.89l.053-6.982H1.103l.021-2.776H3.5l.002-.208c.004-.56-.003-1.119.018-1.678.008-.351.027-.713.09-1.065.16-.85.555-1.563 1.267-2.073.623-.444 1.332-.63 2.084-.647.076-.002.153-.002.23-.002z"/></svg></svg><svg viewBox="0 0 971.986 971.986" id="filter" xmlns="http://www.w3.org/2000/svg"><path d="M370.216 459.3c10.2 11.1 15.8 25.6 15.8 40.6v442c0 26.601 32.1 40.101 51.1 21.4l123.3-141.3c16.5-19.8 25.6-29.601 25.6-49.2V500c0-15 5.7-29.5 15.8-40.601L955.615 75.5c26.5-28.8 6.101-75.5-33.1-75.5h-873c-39.2 0-59.7 46.6-33.1 75.5l353.801 383.8z"/></svg><svg xmlns:svgjs="http://svgjs.com/svgjs" viewBox="0 0.47 19 13.061" fill="#222933" opacity=".8" id="form-letter" xmlns="http://www.w3.org/2000/svg"><svg width="19" height="14" viewBox="2 1.621 18 12.373"><path paint-order="stroke fill markers" fill-rule="evenodd" d="M18.714 13.994H3.286c-.71 0-1.286-.555-1.286-1.237V2.858c0-.682.577-1.237 1.286-1.237h15.428c.709 0 1.286.555 1.286 1.237v9.899c0 .682-.577 1.237-1.286 1.237zM3.286 2.446a.421.421 0 00-.429.412v9.899c0 .227.192.412.429.412h15.428a.421.421 0 00.429-.412V2.858a.421.421 0 00-.429-.412H3.286zM11 8.036a1.32 1.32 0 01-.737-.222L2.48 2.572a.403.403 0 01-.106-.574.44.44 0 01.597-.102l7.782 5.242c.147.1.345.1.492 0l7.782-5.242a.44.44 0 01.596.102.403.403 0 01-.105.574l-7.782 5.242a1.32 1.32 0 01-.737.223zm8.32 5.716c-.11 0-.22-.04-.303-.12l-6.613-6.364a.402.402 0 010-.584.44.44 0 01.606 0l6.613 6.364a.402.402 0 010 .584.436.436 0 01-.303.12zm-16.64 0c-.11 0-.22-.04-.303-.12a.402.402 0 010-.584l6.612-6.364a.44.44 0 01.607 0 .402.402 0 010 .584l-6.613 6.364a.436.436 0 01-.303.12z"/></svg></svg><svg xmlns:svgjs="http://svgjs.com/svgjs" viewBox="0 0.184 19 15.632" fill="#222933" opacity=".8" id="form-message" xmlns="http://www.w3.org/2000/svg"><svg width="19" height="16" viewBox="2 1.191 18 14.809"><path paint-order="stroke fill markers" fill-rule="evenodd" d="M5 16a.444.444 0 01-.164-.031.411.411 0 01-.265-.38v-2.07H3.286c-.71 0-1.286-.554-1.286-1.234V2.424c0-.68.577-1.233 1.286-1.233h15.428c.709 0 1.286.553 1.286 1.233v9.861c0 .68-.577 1.233-1.286 1.233H7.766L5.303 15.88A.438.438 0 015 16zM3.286 2.013a.42.42 0 00-.429.41v9.862a.42.42 0 00.429.411H5a.42.42 0 01.428.411v1.49l1.857-1.78c.08-.077.19-.12.303-.12h11.126a.42.42 0 00.429-.412V2.424a.42.42 0 00-.429-.411H3.286zm4.771 5.342a.63.63 0 01-.643.616.63.63 0 01-.642-.616.63.63 0 01.642-.617.63.63 0 01.643.617zm3.586 0A.63.63 0 0111 7.97a.63.63 0 01-.643-.616.63.63 0 01.643-.617.63.63 0 01.643.617zm3.343 0a.63.63 0 01-.643.616.63.63 0 01-.643-.616.63.63 0 01.643-.617.63.63 0 01.643.617z"/></svg></svg><svg xmlns:svgjs="http://svgjs.com/svgjs" viewBox="0 0.288 15 14.425" fill="#222933" opacity=".8" id="form-user" xmlns="http://www.w3.org/2000/svg"><svg width="15" height="15" viewBox="1.121 1.003 13.688 13.163"><path paint-order="stroke fill markers" fill-rule="evenodd" d="M14.382 14.166H1.549a.42.42 0 01-.428-.411c0-3.63 3.07-6.582 6.845-6.582 3.773 0 6.844 2.953 6.844 6.582a.42.42 0 01-.428.411zm-12.39-.823H13.94c-.22-2.984-2.815-5.347-5.973-5.347-3.159 0-5.754 2.363-5.974 5.347zm5.974-5.347c-2.005 0-3.636-1.569-3.636-3.497s1.63-3.496 3.636-3.496c2.004 0 3.636 1.568 3.636 3.496S9.97 7.996 7.966 7.996zm0-6.17c-1.533 0-2.78 1.2-2.78 2.673 0 1.475 1.247 2.674 2.78 2.674 1.533 0 2.78-1.2 2.78-2.674s-1.247-2.673-2.78-2.673z"/></svg></svg><svg xmlns:svgjs="http://svgjs.com/svgjs" viewBox="0 0.405 24 15.189" id="google" xmlns="http://www.w3.org/2000/svg"><svg width="24" height="16" viewBox="2 1.56 22.692 14.361"><path d="M8.751 15.91c-1.409-.083-2.69-.525-3.823-1.36-1.462-1.078-2.383-2.514-2.77-4.29a6.496 6.496 0 01-.138-1.933 7.041 7.041 0 011.62-4.101 7.123 7.123 0 013.865-2.458 5.77 5.77 0 011.19-.187c.227-.007.455-.021.683-.021a6.741 6.741 0 013.398.932c.7.4 1.098.808 1.27.932-.717.705-1.405 1.395-2.108 2.086-.522-.45-1.099-.863-2.099-1.015a4.258 4.258 0 00-.613-.045C7.22 4.45 5.538 5.9 5.09 7.803a3.941 3.941 0 00-.1 1.298c.153 1.768 1.336 3.218 2.935 3.736a4.177 4.177 0 001.552.179c.753-.048 1.458-.248 2.098-.67 1.075-.732 1.423-1.878 1.425-2.162H9.154l.02-2.768.008-.117h6.754c.364 2.106.036 4.322-1.275 6.055-.907 1.195-2.114 1.948-3.554 2.321a7.744 7.744 0 01-2.356.235zm13.33-4.054H20.19l.001-.07.019-2.43h-2.507V9.28l.015-1.816v-.07h2.505l.02-2.436v-.07h1.961v.07l-.02 2.437h2.507v.07l-.014 1.815v.076H22.17l-.02 2.43v.07h-.07z"/></svg></svg><svg viewBox="0 0 359 359" id="grid-list" xmlns="http://www.w3.org/2000/svg"><path d="M96 0H13C7.5 0 3 4.5 3 10v83c0 5.5 4.5 10 10 10h83c5.5 0 10-4.5 10-10V10c0-5.5-4.5-10-10-10zm-9 84H23V20h64v64zM221 0h-83c-5.5 0-10 4.5-10 10v83c0 5.5 4.5 10 10 10h83c5.5 0 10-4.5 10-10V10c0-5.5-4.5-10-10-10zm-9 84h-64V20h64v64zM96 126H13c-5.5 0-10 4.5-10 10v83c0 5.5 4.5 10 10 10h83c5.5 0 10-4.5 10-10v-83c0-5.5-4.5-10-10-10zm-9 83H23v-63h64v63zM221 126h-83c-5.5 0-10 4.5-10 10v83c0 5.5 4.5 10 10 10h83c5.5 0 10-4.5 10-10v-83c0-5.5-4.5-10-10-10zm-9 83h-64v-63h64v63zM346 0h-83c-5.5 0-10 4.5-10 10v83c0 5.5 4.5 10 10 10h83c5.5 0 10-4.5 10-10V10c0-5.5-4.5-10-10-10zm-9 84h-64V20h64v64zM346 126h-83c-5.5 0-10 4.5-10 10v83c0 5.5 4.5 10 10 10h83c5.5 0 10-4.5 10-10v-83c0-5.5-4.5-10-10-10zm-9 83h-64v-63h64v63zM96 256H13c-5.5 0-10 4.5-10 10v83c0 5.5 4.5 10 10 10h83c5.5 0 10-4.5 10-10v-83c0-5.5-4.5-10-10-10zm-9 84H23v-64h64v64zM221 256h-83c-5.5 0-10 4.5-10 10v83c0 5.5 4.5 10 10 10h83c5.5 0 10-4.5 10-10v-83c0-5.5-4.5-10-10-10zm-9 84h-64v-64h64v64zM346 256h-83c-5.5 0-10 4.5-10 10v83c0 5.5 4.5 10 10 10h83c5.5 0 10-4.5 10-10v-83c0-5.5-4.5-10-10-10zm-9 84h-64v-64h64v64z"/></svg><svg xmlns:svgjs="http://svgjs.com/svgjs" viewBox="0 0.004 19 18.992" id="instagram" xmlns="http://www.w3.org/2000/svg"><svg width="19" height="19" viewBox="2 1.999 17.201 17.194"><path d="M5.588 18.94c-1.95-.505-3.114-1.775-3.424-3.75-.23-1.45-.255-8.19.164-9.654.546-1.906 1.819-3.026 3.747-3.343C6.95 2.05 8.658 2 10.385 2c1.605 0 3.224.044 4.199.098 1.18.062 2.261.442 3.14 1.284.835.8 1.263 1.802 1.371 2.935.128 1.353.211 7.748-.187 9.247-.533 1.96-1.813 3.12-3.797 3.439-.742.12-2.745.191-4.744.191-2.047 0-4.091-.075-4.779-.254zm.918-15.255c-1.5.172-2.508 1.098-2.747 2.59-.247 1.58-.245 7.492-.06 8.68.19 1.236.89 2.085 2.122 2.43.668.188 2.666.254 4.626.254 1.803 0 3.575-.056 4.24-.13 1.514-.165 2.515-1.097 2.754-2.602.247-1.513.247-7.03.106-8.446-.154-1.513-1.079-2.507-2.575-2.742-.74-.112-2.525-.162-4.3-.162-1.712 0-3.416.047-4.166.128zm-.315 6.912a4.443 4.443 0 014.446-4.406 4.37 4.37 0 014.372 4.413 4.451 4.451 0 01-4.446 4.406 4.366 4.366 0 01-4.372-4.413zm1.553-.027a2.827 2.827 0 002.803 2.879h.026a2.88 2.88 0 002.876-2.824 2.823 2.823 0 00-2.803-2.88h-.026a2.88 2.88 0 00-2.876 2.825zm6.444-4.551a1.034 1.034 0 011.03-1.03h.013c.567 0 1.026.464 1.021 1.037a1.043 1.043 0 01-1.043 1.029 1.028 1.028 0 01-1.021-1.036z"/></svg></svg><svg xmlns:svgjs="http://svgjs.com/svgjs" viewBox="0 0.54 38 34.92" id="letter" xmlns="http://www.w3.org/2000/svg"><svg width="38" height="36" viewBox="2 1.918 36.999 34"><path paint-order="stroke fill markers" fill-rule="evenodd" d="M2.975 35.918a.958.958 0 01-.67-.272.93.93 0 01-.277-.659L2 14.786v-.017a.927.927 0 01.41-.754L7.73 10.4V6.56a.94.94 0 01.949-.932h6.067l5.217-3.546a.96.96 0 011.079.001l5.185 3.545h6.093a.94.94 0 01.947.932v3.882l5.297 3.621c.19.13.316.315.373.519.021.046.034.13.034.184l.028 20.17a.94.94 0 01-.946.933l-35.077.048zm2.773-1.867l29.478-.041-14.712-11.224L5.748 34.05zm-1.828-.965l11.443-8.73-11.466-7.793.023 16.523zm21.72-8.748l11.46 8.744-.023-16.565-11.438 7.821zM9.626 18.19l7.308 4.968 3-2.288a.96.96 0 011.16 0l2.977 2.272 7.301-4.993V7.493H9.626V18.19zm-5.013-3.408l3.118 2.12v-4.24l-3.118 2.12zm28.654 2.072l3.028-2.07-3.028-2.07v4.14zM18.08 5.629h4.828L20.5 3.984 18.08 5.63zm-3.994 12.303a.94.94 0 01-.948-.933.94.94 0 01.948-.932h12.83a.94.94 0 01.946.932.94.94 0 01-.946.933h-12.83zm0-4.847a.94.94 0 01-.948-.932.94.94 0 01.948-.932h12.83a.94.94 0 01.946.932.94.94 0 01-.946.932h-12.83z"/></svg></svg><svg viewBox="0 0 18 17" id="like" xmlns="http://www.w3.org/2000/svg"><path d="M8.913 16.244a.707.707 0 01-.28-.056c-.353-.15-8.65-3.75-8.65-10.76C.074 2.779 2.19.722 4.801.722c1.743 0 3.266.918 4.112 2.31a4.796 4.796 0 014.112-2.31c2.61 0 4.725 2.058 4.817 4.684 0 7.034-8.297 10.634-8.65 10.783a.71.71 0 01-.28.056zM4.8 2.106c-1.847 0-3.343 1.47-3.408 3.346 0 5.408 6.125 8.663 7.52 9.335 1.395-.672 7.52-3.93 7.52-9.358-.065-1.853-1.563-3.323-3.408-3.323s-3.342 1.47-3.408 3.346a.7.7 0 01-.704.67.7.7 0 01-.705-.67C8.143 3.576 6.646 2.106 4.8 2.106z"/></svg><svg viewBox="0 0 512 512" id="list" xmlns="http://www.w3.org/2000/svg"><path d="M492 236H144.262c-11.046 0-20 8.954-20 20s8.954 20 20 20H492c11.046 0 20-8.954 20-20s-8.954-20-20-20zM492 86H144.262c-11.046 0-20 8.954-20 20s8.954 20 20 20H492c11.046 0 20-8.954 20-20s-8.954-20-20-20zM492 386H144.262c-11.046 0-20 8.954-20 20s8.954 20 20 20H492c11.046 0 20-8.954 20-20s-8.954-20-20-20z"/><circle cx="27" cy="106" r="27"/><circle cx="27" cy="256" r="27"/><circle cx="27" cy="406" r="27"/></svg><svg id="logo" data-name="Группа 1" viewBox="0 0 146 38.875" xmlns="http://www.w3.org/2000/svg"><defs><style>.aycls-1{fill:#a3bbc8;fill-rule:evenodd}.aycls-2{font-size:36px;fill:#436372;font-family:Rubik;font-weight:500}</style></defs><path id="ayPath_324" data-name="Path 324" class="aycls-1" d="M76.157 79.674a1.13 1.13 0 00.622.387l48.041 9.8a1.137 1.137 0 00.908-.212.874.874 0 00.31-.8l-6.251-37.079a.962.962 0 00-.449-.645 1.337 1.337 0 00-.965-.051L83.179 65.118a.9.9 0 00-.507.452c-.171.325-6.494 13.076-6.583 13.257a.806.806 0 00.068.847zm45.586 6.436l-20.05-11.145 10.339-2.159zm-37.7-18.883l12.526 6.983-17.833 3.715zm1.662-1.172l31.535-12.587-5.558 17.587-12.371 2.584zm37.658 18.995l-9.779-13.4 4.9-15.52zm-3.886 1.9l-38.051-7.763 17.523-3.65z" transform="translate(-76 -51)"/><text id="ayGlee." class="aycls-2" x="62" y="32">Glee.</text></svg><svg viewBox="0 0 20.03 20.031" id="menu" xmlns="http://www.w3.org/2000/svg"><defs><style>.azcls-1{fill:#fff;fill-rule:evenodd}</style></defs><path class="azcls-1" d="M2.15 4.287a2.146 2.146 0 112.14-2.145 2.145 2.145 0 01-2.14 2.145zm0 7.869a2.146 2.146 0 112.14-2.147 2.146 2.146 0 01-2.14 2.147zm0 7.868a2.146 2.146 0 112.14-2.146 2.145 2.145 0 01-2.14 2.146zm7.86-15.737a2.146 2.146 0 112.15-2.145 2.143 2.143 0 01-2.15 2.145zm0 7.869a2.146 2.146 0 112.15-2.147 2.144 2.144 0 01-2.15 2.147zm0 7.868a2.146 2.146 0 112.15-2.146 2.143 2.143 0 01-2.15 2.146zm7.87-15.737a2.146 2.146 0 112.15-2.145 2.143 2.143 0 01-2.15 2.145zm0 7.869a2.146 2.146 0 112.15-2.147 2.144 2.144 0 01-2.15 2.147zm0 7.868a2.146 2.146 0 112.15-2.146 2.143 2.143 0 01-2.15 2.146z"/></svg><svg id="paymant" data-name="Группа 3" viewBox="0 0 53.56 52.25" xmlns="http://www.w3.org/2000/svg"><defs><style>.bacls-1,.bacls-2{fill:#a3bbc8}.bacls-1{fill-rule:evenodd}.bacls-2{opacity:.34}</style></defs><path id="bacredit-card" class="bacls-1" d="M1444.43 1042.32a.83.83 0 00-.84.83v8.27a2.164 2.164 0 01-2.16 2.16h-39.34a2.164 2.164 0 01-2.16-2.16v-11.92h27.29a.84.84 0 100-1.68h-27.29v-5.47h9.87a.828.828 0 00.83-.83.837.837 0 00-.83-.84h-9.87v-2.88a2.166 2.166 0 012.16-2.17h25.13a.835.835 0 100-1.67h-25.13a3.839 3.839 0 00-3.83 3.84v23.62a3.837 3.837 0 003.83 3.83h39.34a3.837 3.837 0 003.83-3.83v-8.27a.828.828 0 00-.83-.83zm-17.21-11.64H1413a.837.837 0 00-.83.84.828.828 0 00.83.83h14.22a.837.837 0 00.84-.83.845.845 0 00-.84-.84zm-9.24 11.56h-14.27a.835.835 0 000 1.67h14.27a.835.835 0 100-1.67zm-6.08 3.99h-8.19a.835.835 0 000 1.67h8.19a.835.835 0 000-1.67zm34.63-13.61a.832.832 0 00.84-.84v-4.77a3.038 3.038 0 00-2.39-2.97v-6.02a6.6 6.6 0 10-13.19 0v6.02a3.053 3.053 0 00-2.4 2.97v10.75a3.045 3.045 0 003.04 3.04h11.9a3.039 3.039 0 003.04-3.04v-3.19a.835.835 0 00-1.67 0v3.19a1.379 1.379 0 01-1.37 1.37h-11.9a1.379 1.379 0 01-1.37-1.37v-10.75a1.379 1.379 0 011.37-1.37h11.9a1.379 1.379 0 011.37 1.37v4.77a.83.83 0 00.83.84zm-3.23-8.65h-9.84v-5.95a4.92 4.92 0 119.84 0v5.95zm-4.92 4.32a3.092 3.092 0 00-.83 6.07v2.04a.83.83 0 00.83.84.839.839 0 00.84-.84v-2.04a3.094 3.094 0 00-.84-6.07zm0 4.52a1.425 1.425 0 111.42-1.43 1.428 1.428 0 01-1.42 1.43z" transform="translate(-1398.25 -1011.41)"/><circle class="bacls-2" cx="43.75" cy="42.45" r="9.81"/></svg><svg viewBox="0 0 22 25" id="play" xmlns="http://www.w3.org/2000/svg"><defs><style>.bbcls-1{fill:#fff;fill-rule:evenodd}</style></defs><path id="bbForm_24" data-name="Form 24" class="bbcls-1" d="M970.684 3900.74l-16.044 9.8a3.228 3.228 0 01-3.062.14 2.685 2.685 0 01-1.579-2.39v-19.59a2.685 2.685 0 011.579-2.39 3.258 3.258 0 013.062.15l16.044 9.79a2.666 2.666 0 011.316 2.25 2.638 2.638 0 01-1.316 2.24z" transform="translate(-950 -3886)"/></svg><svg xmlns:svgjs="http://svgjs.com/svgjs" viewBox="0.193 0 37.613 39" fill="#a3bbc8" id="projects" xmlns="http://www.w3.org/2000/svg"><svg width="38" height="39" viewBox="1.002 1.239 36.38 37.722"><path paint-order="stroke fill markers" fill-rule="evenodd" d="M2.975 38.96a1.985 1.985 0 01-1.973-1.991V9.69c0-.24.095-.472.264-.643l7.476-7.542a.898.898 0 01.639-.267h19.091c1.088 0 1.972.893 1.972 1.991v2.873c0 .502-.404.91-.902.91a.907.907 0 01-.902-.91V3.23a.169.169 0 00-.168-.17H10.284v5.552c0 1.097-.886 1.99-1.974 1.99H2.807V36.97c0 .093.076.17.168.17h25.497a.17.17 0 00.168-.17V23.067c0-.502.404-.91.902-.91s.902.408.902.91V36.97a1.985 1.985 0 01-1.973 1.991H2.975zM4.083 8.782H8.31a.17.17 0 00.168-.17V4.347L4.083 8.782zM8.06 32.49a.907.907 0 01-.901-.91c0-.503.404-.91.901-.91H12l1.394-5.066a.908.908 0 01.231-.4l.014-.015H8.06a.906.906 0 01-.901-.91c0-.503.404-.91.901-.91h7.384l5.432-5.48H8.059a.906.906 0 01-.901-.91c0-.504.404-.911.901-.911H22.68l8.429-8.503a3.037 3.037 0 014.318 0l1.062 1.07a3.102 3.102 0 010 4.357l-17.485 17.64a.907.907 0 01-.396.234L12.91 32.46c-.028.007-.226.03-.226.03H8.059zm5.923-2.218l2.652-.744-1.916-1.933-.736 2.677zm1.556-4.424l2.827 2.853L32.8 14.14l-2.828-2.852-14.434 14.561zM32.384 8.852l-1.136 1.147 2.828 2.853 1.136-1.147a1.27 1.27 0 000-1.782L34.15 8.852a1.24 1.24 0 00-1.766 0z"/></svg></svg><svg xmlns:svgjs="http://svgjs.com/svgjs" viewBox="0 0.055 65 57.89" fill="#243f4d" id="rate" xmlns="http://www.w3.org/2000/svg"><svg width="65" height="58" viewBox="2 2 64 57"><path paint-order="stroke fill markers" fill-rule="evenodd" d="M62.635 2H5.365A3.365 3.365 0 002 5.357v41.142a3.365 3.365 0 003.365 3.357h21.691l-.877 7h-3.633a1.073 1.073 0 100 2.144h22.908a1.073 1.073 0 100-2.144H41.82l-.877-7h21.692A3.365 3.365 0 0066 46.5V5.357A3.365 3.365 0 0062.635 2zM28.344 56.857l.877-7h9.558l.877 7H28.344zm35.508-10.358c0 .67-.546 1.215-1.217 1.215H5.365a1.217 1.217 0 01-1.217-1.215V5.357c0-.67.545-1.215 1.217-1.215h57.27c.671 0 1.217.545 1.217 1.215v41.142zM52.327 6.571H7.655c-.593 0-1.073.48-1.073 1.072V43.07c0 .592.48 1.071 1.073 1.071h3.437a1.071 1.071 0 100-2.141H8.729V8.714h43.598a1.073 1.073 0 000-2.143zm8.017 0h-3.436a1.073 1.073 0 000 2.143h2.363V42H15.673a1.072 1.072 0 100 2.142h44.671c.593 0 1.074-.48 1.074-1.071V7.643c0-.592-.48-1.072-1.074-1.072zm-6.872 5.714a3.365 3.365 0 00-3.365 3.358c0 .57.144 1.105.395 1.576L41.9 26.31a3.355 3.355 0 00-3.721.614l-7.349-3.882a3.365 3.365 0 10-6.685-.541c0 .517.119 1.008.33 1.446l-8.407 8.141a3.365 3.365 0 00-4.904 2.984 3.365 3.365 0 006.73 0 3.33 3.33 0 00-.33-1.447l8.407-8.14a3.355 3.355 0 003.852-.55l7.348 3.881a3.365 3.365 0 106.685.542 3.33 3.33 0 00-.395-1.577l8.604-9.09a3.365 3.365 0 004.773-3.048 3.365 3.365 0 00-3.365-3.357zm-38.944 24a1.217 1.217 0 01-1.217-1.214 1.217 1.217 0 012.434 0c0 .67-.546 1.214-1.217 1.214zm12.981-12.571a1.217 1.217 0 01-1.217-1.214 1.217 1.217 0 012.434 0c0 .67-.546 1.214-1.217 1.214zm12.982 6.857a1.217 1.217 0 01-1.217-1.214 1.217 1.217 0 012.434 0c0 .67-.546 1.214-1.217 1.214zm12.98-13.714a1.217 1.217 0 01-1.216-1.214 1.217 1.217 0 012.434 0c0 .67-.546 1.214-1.217 1.214zm0 4.57c-.592 0-1.073.48-1.073 1.073v16c0 .591.48 1.07 1.074 1.07.593 0 1.074-.479 1.074-1.07v-16c0-.592-.481-1.072-1.074-1.072zM27.51 28.286c-.593 0-1.074.48-1.074 1.072V38.5c0 .591.481 1.071 1.074 1.071.593 0 1.074-.48 1.074-1.071v-9.143c0-.592-.48-1.072-1.074-1.072zm12.982 6.857c-.593 0-1.074.48-1.074 1.072V38.5c0 .591.48 1.071 1.074 1.071.593 0 1.073-.48 1.073-1.071v-2.286c0-.592-.48-1.072-1.073-1.072z"/></svg></svg><svg xmlns:svgjs="http://svgjs.com/svgjs" viewBox="0 0.092 45 40.815" fill="#a3bbc8" id="revenue" xmlns="http://www.w3.org/2000/svg"><svg width="45" height="41" viewBox="1.014 1.33 43.118 39.109"><path paint-order="stroke fill markers" fill-rule="evenodd" d="M38.87 10.648V3.522a2.18 2.18 0 00-1.052-1.887 2.07 2.07 0 00-2.127-.021c-6.402 3.677-13.367 5.825-20.7 6.383-.056.004-6.684.034-6.684.034-1.665 0-3.04 1.291-3.231 2.949h-1.36c-1.49 0-2.702 1.245-2.702 2.774v6.096c0 1.53 1.212 2.774 2.701 2.774h1.36a3.342 3.342 0 001.92 2.664l4.84 13.723a2.123 2.123 0 001.986 1.428h4.858a2.1 2.1 0 001.731-.925c.395-.58.49-1.323.255-1.986l-4.159-11.785c6.778.724 13.225 2.82 19.185 6.244.33.19.688.283 1.046.283.372 0 .744-.101 1.08-.304a2.18 2.18 0 001.052-1.887v-7.126c2.965-.394 5.263-3.002 5.263-6.153 0-3.15-2.298-5.758-5.262-6.152zM5.052 20.484H3.715a.627.627 0 01-.618-.634v-6.096c0-.35.278-.634.618-.634h1.337v7.364zm2.777 2.844a1.205 1.205 0 01-.693-1.098V11.374c0-.663.525-1.203 1.17-1.203h5.671v13.262s-5.72-.002-5.745-.004a1.065 1.065 0 01-.403-.101zm10.878 14.93c.003.009.006.015-.004.028-.009.013-.015.013-.024.013h-4.858a.03.03 0 01-.027-.018L9.31 25.573h4.92l4.477 12.685zm18.08-8.179c0 .015 0 .028-.023.041-.027.016-.043.007-.056 0-6.403-3.678-13.345-5.886-20.648-6.57V10.052c7.303-.686 14.245-2.893 20.648-6.571.013-.007.03-.016.056 0 .022.013.022.025.022.04V30.08zm2.083-9.292v-7.974c1.81.373 3.179 2.02 3.179 3.987 0 1.968-1.369 3.614-3.18 3.987z"/></svg></svg><svg viewBox="0 0 15.28 15.281" id="search" xmlns="http://www.w3.org/2000/svg"><defs><style>.bfcls-1{fill:#243f4d;fill-rule:evenodd}</style></defs><path id="bficon" class="bfcls-1" d="M1547.7 72.076a.617.617 0 01.75.485 2.583 2.583 0 00.78 1.489 3.036 3.036 0 001.49.777.636.636 0 01.49.743.649.649 0 01-.72.515 4.21 4.21 0 01-2.14-1.13 4.164 4.164 0 01-1.13-2.136.6.6 0 01.48-.743zm3.28-6.076a6.267 6.267 0 016.28 6.257 6.136 6.136 0 01-.57 2.6l2.34 2.036c1.7 1.746.74 3.266.29 3.717-.42.454-1.99 1.414-3.73-.292l-2.06-2.35A6.261 6.261 0 111550.98 66zm5.55 13.517a1.352 1.352 0 001.88.226 1.313 1.313 0 00-.23-1.874l-2.16-1.88a6.236 6.236 0 01-1.37 1.34zm-5.55-2.312a4.948 4.948 0 10-4.97-4.948 4.963 4.963 0 004.97 4.943z" transform="translate(-1544.72 -66)"/></svg><svg aria-hidden="true" data-prefix="fas" data-icon="star" class="bgsvg-inline--fa bgfa-star bgfa-w-18" viewBox="0 0 576 512" id="star" xmlns="http://www.w3.org/2000/svg"><path fill="currentColor" d="M259.3 17.8L194 150.2 47.9 171.5c-26.2 3.8-36.7 36.1-17.7 54.6l105.7 103-25 145.5c-4.5 26.3 23.2 46 46.4 33.7L288 439.6l130.7 68.7c23.2 12.2 50.9-7.4 46.4-33.7l-25-145.5 105.7-103c19-18.5 8.5-50.8-17.7-54.6L382 150.2 316.7 17.8c-11.7-23.6-45.6-23.9-57.4 0z"/></svg><svg xmlns:svgjs="http://svgjs.com/svgjs" viewBox="0 0.188 65 40.625" fill="#243f4d" id="stat-delivery" xmlns="http://www.w3.org/2000/svg"><svg width="65" height="41" viewBox="2 2 64 40"><path paint-order="stroke fill markers" fill-rule="evenodd" d="M61.52 18.957l-1.658-6.55a.993.993 0 00.793-.968v-1.056c0-2.293-1.888-4.159-4.208-4.159h-7.55V4.046c0-1.128-.928-2.046-2.07-2.046H8.347c-1.143 0-2.072.918-2.072 2.046V22c0 .547.449.99 1.003.99A.996.996 0 008.28 22V4.046c0-.037.03-.066.066-.066h38.48c.037 0 .067.03.067.066V22c0 .547.449.99 1.002.99a.996.996 0 001.003-.99v-1.122h11.826a3.275 3.275 0 013.114 2.244h-3.116a.996.996 0 00-1.002.99v2.112c0 1.71 1.408 3.103 3.14 3.103h1.136v4.356h-2.62a6.351 6.351 0 00-5.998-4.224 6.351 6.351 0 00-5.998 4.224h-.483v-7.459a.996.996 0 00-1.002-.99.996.996 0 00-1.002.99v7.459h-20.79a6.351 6.351 0 00-5.999-4.225 6.351 6.351 0 00-5.997 4.225h-5.76a.066.066 0 01-.067-.066v-2.179h4.342a.996.996 0 001.002-.99.996.996 0 00-1.002-.99h-9.62a.996.996 0 00-1.002.99c0 .547.449.99 1.002.99h3.274v2.179c0 1.128.929 2.046 2.07 2.046h5.414l-.002.066c0 3.458 2.847 6.27 6.346 6.27 3.5 0 6.347-2.812 6.347-6.27l-.002-.066h22.584l-.002.066c0 3.458 2.847 6.27 6.347 6.27 3.499 0 6.346-2.812 6.346-6.27l-.002-.066h3.276a.996.996 0 001.002-.99V24.112c0-2.608-1.947-4.774-4.48-5.155zM48.898 8.204h7.549c1.215 0 2.204.978 2.204 2.179v.066h-9.753V8.204zm0 10.694v-6.47h8.904l1.637 6.47H48.898zM20.104 40.02c-2.394 0-4.342-1.925-4.342-4.29 0-2.367 1.948-4.291 4.342-4.291 2.395 0 4.343 1.924 4.343 4.29s-1.948 4.29-4.343 4.29zm35.274 0c-2.395 0-4.343-1.925-4.343-4.29 0-2.367 1.948-4.291 4.343-4.291 2.394 0 4.342 1.924 4.342 4.29s-1.948 4.29-4.342 4.29zm8.618-12.674H62.86a1.13 1.13 0 01-1.136-1.122v-1.122h2.272v2.244zm-43.892 6.337c-1.142 0-2.07.918-2.07 2.046 0 1.129.928 2.047 2.07 2.047s2.071-.918 2.071-2.047c0-1.128-.929-2.046-2.07-2.046zm35.274 0c-1.142 0-2.071.918-2.071 2.046 0 1.129.929 2.047 2.07 2.047 1.143 0 2.072-.918 2.072-2.047 0-1.128-.93-2.046-2.071-2.046zM43.62 29.459H28.655a.996.996 0 00-1.002.99c0 .547.449.99 1.002.99H43.62a.996.996 0 001.002-.99.996.996 0 00-1.002-.99zm-25.653-4.225H5.14a.996.996 0 00-1.002.99c0 .547.448.99 1.002.99h12.827a.996.996 0 001.002-.99.996.996 0 00-1.002-.99zm18.88-13.44a1.01 1.01 0 00-1.418 0L26.518 20.6l-4.636-4.58a1.011 1.011 0 00-1.417 0 .982.982 0 000 1.4l5.344 5.281a1.007 1.007 0 001.417 0l9.62-9.505a.982.982 0 000-1.4z"/></svg></svg><svg id="support" data-name="Группа 1" viewBox="0 0 50.875 53.13" xmlns="http://www.w3.org/2000/svg"><defs><style>.bicls-1,.bicls-2{fill:#a3bbc8;fill-rule:evenodd}.bicls-1{opacity:.34}</style></defs><path class="bicls-1" d="M263.984 1044.59a9.815 9.815 0 11-9.8 9.82 9.811 9.811 0 019.8-9.82z" transform="translate(-222.906 -1011.09)"/><path class="bicls-2" d="M268.312 1022.67a.937.937 0 00-1.592.99 22.684 22.684 0 01-32.86 30.14.938.938 0 00-1.125 1.5 24.559 24.559 0 0035.577-32.63zm-23.03 21.94h-7.55l4.743-4.75a12.68 12.68 0 003.744-9.03 5.844 5.844 0 10-11.688 0 .938.938 0 001.875 0 3.969 3.969 0 117.938 0 10.836 10.836 0 01-3.195 7.71l-6.344 6.34a.949.949 0 00-.2 1.03.93.93 0 00.866.57h9.813a.935.935 0 10-.002-1.87zm15.039-6.44h-2.6v-1.52a.938.938 0 00-1.875 0v1.52h-5.286l5.286-8.85v4.21a.938.938 0 101.875 0v-7.62a.957.957 0 00-.456-.8.94.94 0 00-1.286.33l-7.875 13.19a.933.933 0 00-.011.94.951.951 0 00.816.48h6.938v5.5a.938.938 0 001.875 0v-5.5h2.6a.94.94 0 00-.001-1.88zm5.33-22.63a.938.938 0 10-1.875.04l.042 1.75a24.556 24.556 0 00-33.549 35.85.93.93 0 00.656.27.92.92 0 00.669-.28.942.942 0 00-.013-1.33 22.679 22.679 0 0115.882-38.87 22.745 22.745 0 0115.107 5.77l-1.843.04a.935.935 0 00.022 1.87h.023l4.06-.09a.934.934 0 00.915-.96z" transform="translate(-222.906 -1011.09)"/></svg><svg xmlns:svgjs="http://svgjs.com/svgjs" viewBox="0 0.017 68 64.965" fill="#243f4d" id="time" xmlns="http://www.w3.org/2000/svg"><svg width="68" height="65" viewBox="2.01 1.999 66.99 64"><path paint-order="stroke fill markers" fill-rule="evenodd" d="M59.057 55.461a4.351 4.351 0 00-2.212-3.23l-11.588-6.45a4.61 4.61 0 00-5.457.742l-4.07 4.027c-.833.825-2.167.928-3.104.24a73.962 73.962 0 01-8.167-7.005 73.673 73.673 0 01-7.078-8.082c-.696-.926-.592-2.247.241-3.073l4.07-4.026a4.49 4.49 0 00.75-5.4l-6.519-11.467a4.396 4.396 0 00-3.263-2.188 4.698 4.698 0 00-3.962 1.339l-4.292 4.247c-3.032 3-3.191 8.372-.449 15.125 2.624 6.461 7.616 13.53 14.057 19.903 6.44 6.374 13.584 11.314 20.112 13.91C41.36 65.36 44.278 66 46.778 66c2.777 0 5.037-.792 6.633-2.371l4.292-4.247c1.06-1.05 1.554-2.478 1.354-3.92zm-2.889 2.402l-.75.742-9.879-5.332a1.091 1.091 0 00-1.472.428 1.068 1.068 0 00.433 1.457l9.319 5.03-1.943 1.922c-2.344 2.32-7.06 2.309-12.94-.03-6.264-2.49-13.149-7.262-19.388-13.435C13.31 42.47 8.488 35.658 5.971 29.46c-2.363-5.82-2.374-10.487-.03-12.807l1.942-1.922 1.039 1.885a1.087 1.087 0 001.472.429c.526-.285.72-.937.433-1.457l-1.344-2.44.75-.741a2.548 2.548 0 012.131-.73c.713.096 1.32.502 1.668 1.113l6.518 11.467c.522.92.361 2.082-.393 2.828l-1.936 1.917-5.082-9.22a1.091 1.091 0 00-1.472-.428c-.526.284-.72.936-.433 1.457l5.387 9.773-.533.528c-1.589 1.572-1.782 4.097-.449 5.872a75.827 75.827 0 007.286 8.32 76.142 76.142 0 008.407 7.21c1.794 1.318 4.344 1.127 5.934-.445l.533-.528 2.464 1.33a1.087 1.087 0 001.472-.429 1.068 1.068 0 00-.433-1.456l-1.904-1.028 1.937-1.916a2.415 2.415 0 012.858-.389l11.588 6.45a2.22 2.22 0 011.125 1.65c.107.771-.162 1.54-.738 2.11zM54.025 29.49h-1.23v-9.235a1.08 1.08 0 00-1.085-1.074 1.08 1.08 0 00-1.085 1.074v9.235h-5.664l2.021-9.002a1.074 1.074 0 00-.824-1.28 1.085 1.085 0 00-1.295.814l-2.315 10.31c-.071.317.007.65.213.904s.518.402.847.402h7.017v3.508a1.08 1.08 0 001.085 1.073c.6 0 1.085-.48 1.085-1.073v-3.508h1.23c.6 0 1.085-.481 1.085-1.074a1.08 1.08 0 00-1.085-1.074zm-13.89 4.582H32.15c.472-1.23 1.808-2.013 3.735-3.053 2.378-1.284 5.337-2.882 5.337-6.51 0-2.937-2.564-5.328-5.715-5.328-3.152 0-5.715 2.39-5.715 5.329a1.08 1.08 0 001.085 1.074 1.08 1.08 0 001.085-1.074c0-1.754 1.59-3.18 3.545-3.18 1.954 0 3.544 1.426 3.544 3.18 0 2.194-1.589 3.21-4.206 4.624-2.369 1.279-5.054 2.729-5.054 6.012a1.08 1.08 0 001.086 1.073h9.26c.599 0 1.085-.48 1.085-1.073a1.08 1.08 0 00-1.085-1.074zm22.937 12.62l-2.113.418c5.135-4.936 8.04-11.686 8.04-18.837C69 13.786 57.09 2 42.45 2c-8.627 0-16.748 4.173-21.72 11.163a1.067 1.067 0 00.262 1.496c.49.341 1.167.225 1.512-.26C27.07 7.979 34.528 4.147 42.45 4.147c13.442 0 24.379 10.822 24.379 24.125 0 6.663-2.749 12.945-7.594 17.494l.483-2.393a1.075 1.075 0 00-.851-1.264 1.085 1.085 0 00-1.277.843l-1.157 5.727c-.071.352.04.716.296.97a1.093 1.093 0 00.98.293l5.788-1.145c.588-.117.969-.682.851-1.264a1.086 1.086 0 00-1.277-.842zM42.45 6.58a1.08 1.08 0 00-1.085 1.074v2.29a1.08 1.08 0 001.085 1.075c.6 0 1.086-.481 1.086-1.074v-2.29a1.08 1.08 0 00-1.086-1.074zm20.835 20.617H60.97c-.6 0-1.085.481-1.085 1.074a1.08 1.08 0 001.085 1.074h2.315c.6 0 1.085-.48 1.085-1.074a1.08 1.08 0 00-1.085-1.074zm-36.33-9.019l-2.005-1.145a1.091 1.091 0 00-1.482.393c-.3.513-.122 1.17.397 1.466l2.004 1.146a1.087 1.087 0 001.482-.393c.3-.514.123-1.17-.396-1.467zM61.036 37.65l-2.005-1.146a1.091 1.091 0 00-1.482.393c-.3.514-.122 1.17.397 1.467l2.005 1.145a1.087 1.087 0 001.482-.393c.3-.513.122-1.17-.397-1.466zM53.41 9.487a1.091 1.091 0 00-1.482.393l-1.157 1.984c-.3.514-.122 1.17.397 1.467a1.087 1.087 0 001.482-.393l1.158-1.984c.3-.513.121-1.17-.398-1.467zM33.733 43.213a1.092 1.092 0 00-1.482.393l-1.158 1.984c-.3.514-.121 1.17.398 1.467a1.089 1.089 0 001.482-.393l1.157-1.984c.3-.514.122-1.17-.397-1.467zm27.7-25.786a1.09 1.09 0 00-1.482-.393l-2.005 1.145a1.068 1.068 0 00-.397 1.467 1.086 1.086 0 001.483.393l2.004-1.145c.52-.297.697-.954.397-1.467zM27.352 36.898c-.3-.513-.964-.69-1.483-.393l-2.004 1.146c-.52.296-.697.953-.397 1.467a1.087 1.087 0 001.482.393l2.005-1.146c.519-.296.696-.953.397-1.467zm6.778-25.034L32.973 9.88a1.09 1.09 0 00-1.482-.392 1.067 1.067 0 00-.397 1.466l1.157 1.984a1.087 1.087 0 001.482.393c.52-.296.697-.953.397-1.467zM53.807 45.59l-1.157-1.984c-.3-.513-.963-.69-1.482-.393a1.068 1.068 0 00-.397 1.467l1.157 1.984a1.087 1.087 0 001.482.393c.52-.297.697-.953.397-1.467z"/></svg></svg><svg xmlns:svgjs="http://svgjs.com/svgjs" viewBox="0 0.517 16 12.965" id="twitter" xmlns="http://www.w3.org/2000/svg"><svg width="16" height="14" viewBox="1.361 1.888 14.329 11.612"><path paint-order="stroke fill markers" fill-rule="evenodd" d="M15.69 3.277a4.39 4.39 0 01-.332.45 5.57 5.57 0 01-1.072 1.015l-.05.093c.013.433-.007.867-.065 1.3a8.717 8.717 0 01-2.374 4.92 7.9 7.9 0 01-4.049 2.249 9.021 9.021 0 01-1.9.196 8.216 8.216 0 01-4.417-1.266l-.07-.043c.232.024.461.037.689.037a5.95 5.95 0 002.248-.438 5.825 5.825 0 001.4-.817c-1.52-.05-2.465-1.147-2.71-2.035.181.035.363.052.544.052.237 0 .474-.03.712-.085l.044-.022c-.827-.192-1.46-.631-1.894-1.344a2.856 2.856 0 01-.42-1.558c.414.22.841.34 1.302.351-.617-.444-1.029-1.031-1.193-1.777a2.887 2.887 0 01.334-2.123c1.57 1.87 3.57 2.897 6.021 3.066a8.282 8.282 0 00-.047-.323 2.84 2.84 0 01.448-1.914c.472-.735 1.14-1.19 1.996-1.328.182-.03.36-.045.533-.045.768 0 1.446.294 2.028.863.036.032.067.05.108.05a.175.175 0 00.045-.007 5.783 5.783 0 001.71-.652l.04-.022c-.214.68-.64 1.206-1.247 1.596a5.654 5.654 0 001.638-.439z"/></svg></svg><svg viewBox="0 0 785.816 1010" id="user" xmlns="http://www.w3.org/2000/svg"><path d="M392.97 0c135.25 0 244.856 109.523 244.856 244.691 0 135.312-109.606 244.815-244.857 244.815-135.127 0-244.773-109.503-244.773-244.815C148.196 109.523 257.842 0 392.969 0zM785.816 1010H0V876.846c0-173.78 109.4-321.132 261.952-376.059L392.97 675.39l130.976-174.602c152.594 54.927 261.87 202.28 261.87 376.059V1010z"/></svg></svg>