<?xml version="1.0" encoding="utf-8"?><!DOCTYPE svg PUBLIC "-//W3C//DTD SVG 1.1//EN" "http://www.w3.org/Graphics/SVG/1.1/DTD/svg11.dtd"><svg viewBox="0 0 971.986 1010" xmlns="http://www.w3.org/2000/svg" xmlns:xlink="http://www.w3.org/1999/xlink"><style>:root>svg{display:none}:root>svg:target{display:block}</style><svg viewBox="0 0 22 9" id="arrow" xmlns="http://www.w3.org/2000/svg"><defs><style>.acls-1{fill:#fff;fill-rule:evenodd}</style></defs><path class="acls-1" d="M.3 5.472h16.948l-.1 2.857a.292.292 0 000 .41l.172.172a.28.28 0 00.2.086.285.285 0 00.2-.084l4.193-4.211A.292.292 0 0022 4.5a.283.283 0 00-.084-.2L17.723.087a.289.289 0 00-.407 0l-.172.173a.287.287 0 00-.084.2.278.278 0 00.084.2l.113 2.865H.292A.3.3 0 000 3.82v1.37a.292.292 0 00.3.282z"/></svg><svg viewBox="0 0 18.94 16.969" id="basket" xmlns="http://www.w3.org/2000/svg"><defs><style>.bcls-1{fill:#243f4d;fill-rule:evenodd}</style></defs><path class="bcls-1" d="M5.53 16.978a2.074 2.074 0 110-4.147 2.056 2.056 0 011.46.6 2.03 2.03 0 01.61 1.466 2.071 2.071 0 01-2.07 2.081zm0-2.963a.889.889 0 10.34 1.71.9.9 0 00.55-.824.92.92 0 00-.26-.629.9.9 0 00-.63-.257zm8.39 2.963a2.045 2.045 0 01-1.46-.607 2.068 2.068 0 011.46-3.54 1.953 1.953 0 011.47.6 2.085 2.085 0 01-.67 3.383 2.093 2.093 0 01-.8.164zm0-2.963a.978.978 0 00-.82.548.887.887 0 001.16 1.161.891.891 0 00.29-1.452.9.9 0 00-.63-.257zm-11.27.164a.562.562 0 01-.25-.056.59.59 0 01-.29-.787 3.686 3.686 0 013.05-2.151L4.11 5.794a.591.591 0 111.16-.228l1.09 5.578h9.43l1.8-6.771H4.29A4.346 4.346 0 01.01.68.587.587 0 01.5.007a.6.6 0 01.68.5 3.159 3.159 0 003.11 2.682h14.07a.582.582 0 01.47.232.594.594 0 01.11.513l-2.13 7.956a.59.59 0 01-.57.44H5.88a.03.03 0 00-.02 0 2.66 2.66 0 00-2.68 1.51.586.586 0 01-.53.338z"/></svg><svg viewBox="0 0 22 9" id="button-arrow" xmlns="http://www.w3.org/2000/svg"><defs><style>.ccls-1{fill:#fff;fill-rule:evenodd}</style></defs><path class="ccls-1" d="M.3 5.472h16.948l-.1 2.857a.292.292 0 000 .41l.172.172a.28.28 0 00.2.086.285.285 0 00.2-.084l4.193-4.211A.292.292 0 0022 4.5a.283.283 0 00-.084-.2L17.723.087a.289.289 0 00-.407 0l-.172.173a.287.287 0 00-.084.2.278.278 0 00.084.2l.113 2.865H.292A.3.3 0 000 3.82v1.37a.292.292 0 00.3.282z"/></svg><svg viewBox="0 0 100.353 100.353" id="date" xmlns="http://www.w3.org/2000/svg"><path d="M32.286 42.441h-9.762a1.5 1.5 0 00-1.5 1.5v9.762a1.5 1.5 0 001.5 1.5h9.762a1.5 1.5 0 001.5-1.5v-9.762a1.5 1.5 0 00-1.5-1.5zm-1.5 9.762h-6.762v-6.762h6.762v6.762zM55.054 42.441h-9.762a1.5 1.5 0 00-1.5 1.5v9.762a1.5 1.5 0 001.5 1.5h9.762a1.5 1.5 0 001.5-1.5v-9.762a1.5 1.5 0 00-1.5-1.5zm-1.5 9.762h-6.762v-6.762h6.762v6.762zM77.12 42.441h-9.762a1.5 1.5 0 00-1.5 1.5v9.762a1.5 1.5 0 001.5 1.5h9.762a1.5 1.5 0 001.5-1.5v-9.762a1.5 1.5 0 00-1.5-1.5zm-1.5 9.762h-6.762v-6.762h6.762v6.762zM32.286 64.677h-9.762a1.5 1.5 0 00-1.5 1.5v9.762a1.5 1.5 0 001.5 1.5h9.762a1.5 1.5 0 001.5-1.5v-9.762a1.5 1.5 0 00-1.5-1.5zm-1.5 9.762h-6.762v-6.762h6.762v6.762zM55.054 64.677h-9.762a1.5 1.5 0 00-1.5 1.5v9.762a1.5 1.5 0 001.5 1.5h9.762a1.5 1.5 0 001.5-1.5v-9.762a1.5 1.5 0 00-1.5-1.5zm-1.5 9.762h-6.762v-6.762h6.762v6.762zM77.12 64.677h-9.762a1.5 1.5 0 00-1.5 1.5v9.762a1.5 1.5 0 001.5 1.5h9.762a1.5 1.5 0 001.5-1.5v-9.762a1.5 1.5 0 00-1.5-1.5zm-1.5 9.762h-6.762v-6.762h6.762v6.762z"/><path d="M89 13.394h-9.907c-.013 0-.024.003-.037.004V11.4c0-3.268-2.658-5.926-5.926-5.926s-5.926 2.659-5.926 5.926v1.994H56.041V11.4c0-3.268-2.658-5.926-5.926-5.926s-5.926 2.659-5.926 5.926v1.994H33.025V11.4c0-3.268-2.658-5.926-5.926-5.926s-5.926 2.659-5.926 5.926v1.995l-.015-.001h-9.905a1.5 1.5 0 00-1.5 1.5V92.64a1.5 1.5 0 001.5 1.5H89a1.5 1.5 0 001.5-1.5V14.894a1.5 1.5 0 00-1.5-1.5zM70.204 11.4c0-1.614 1.312-2.926 2.926-2.926s2.926 1.312 2.926 2.926v8.277c0 1.613-1.312 2.926-2.926 2.926s-2.926-1.312-2.926-2.926V11.4zM50.115 8.474a2.93 2.93 0 012.926 2.926v8.277a2.93 2.93 0 01-2.926 2.926 2.929 2.929 0 01-2.926-2.926v-4.643c.004-.047.014-.092.014-.141s-.01-.094-.014-.141V11.4a2.929 2.929 0 012.926-2.926zM24.173 11.4a2.929 2.929 0 012.926-2.926 2.93 2.93 0 012.926 2.926v8.277a2.93 2.93 0 01-2.926 2.926 2.929 2.929 0 01-2.926-2.926V11.4zM87.5 91.14H12.753V16.394h8.405l.015-.001v3.285c0 3.268 2.659 5.926 5.926 5.926s5.926-2.658 5.926-5.926v-3.283h11.164v3.283c0 3.268 2.659 5.926 5.926 5.926s5.926-2.658 5.926-5.926v-3.283h11.163v3.283c0 3.268 2.658 5.926 5.926 5.926s5.926-2.658 5.926-5.926V16.39c.013 0 .024.004.037.004H87.5V91.14z"/></svg><svg id="delivery" data-name="Группа 2" viewBox="0 0 53.75 36.44" xmlns="http://www.w3.org/2000/svg"><defs><style>.ecls-1,.ecls-2{fill:#a3bbc8}.ecls-1{fill-rule:evenodd}.ecls-2{opacity:.34}</style></defs><path id="edelivery-truck" class="ecls-1" d="M812.816 1025.33h-6.126a.79.79 0 000 1.58h6.126a.79.79 0 000-1.58zm.524 11.01h-5.6a.785.785 0 100 1.57h5.6a.785.785 0 100-1.57zm-2.094-4.72H804.6a.79.79 0 000 1.58h6.65a.79.79 0 00-.004-1.58zm0 11.01h-.646a.785.785 0 100 1.57h.644a.785.785 0 10.002-1.57zm-3.263 0H804.6a.785.785 0 100 1.57h3.387a.785.785 0 10-.004-1.57zm36.86-19.86h-6.657v-1.42a.784.784 0 00-.786-.78h-12.175a.785.785 0 100 1.57h11.39v17.22a.786.786 0 101.571 0v-15.02h6.657a6.519 6.519 0 016.509 6.52v13.29h-2a4.974 4.974 0 00-9.824 0h-1.345v-1.12a.786.786 0 10-1.571 0v1.12h-8.336a4.974 4.974 0 00-9.823 0h-1.634v-22.01h5.261a.785.785 0 100-1.57h-6.046a.783.783 0 00-.785.78v23.59a.791.791 0 00.785.79h2.419a4.974 4.974 0 009.823 0h11.252a4.974 4.974 0 009.824 0h2.782a.791.791 0 00.785-.79v-14.08a8.094 8.094 0 00-8.076-8.09zm-21.475 25.58a3.41 3.41 0 113.4-3.41 3.411 3.411 0 01-3.4 3.41zm21.075 0a3.411 3.411 0 01-3.4-3.41 3.4 3.4 0 113.4 3.41zm.4-22.44h-4.3a.791.791 0 00-.785.79v7.39a.791.791 0 00.785.79H849a.792.792 0 00.786-.79v-3.23a4.949 4.949 0 00-4.943-4.95zm3.367 7.39h-6.882v-5.81h3.515a3.371 3.371 0 013.367 3.37v2.44zm-24.842 9.61a2.03 2.03 0 102.024 2.03 2.029 2.029 0 00-2.024-2.03zm0 2.49a.46.46 0 01-.455-.46.455.455 0 01.909 0 .46.46 0 01-.454.46zm21.075-2.49a2.03 2.03 0 102.025 2.03 2.03 2.03 0 00-2.025-2.03zm0 2.49a.46.46 0 01-.454-.46.454.454 0 01.908 0 .46.46 0 01-.454.46zm4.552-8.37a.783.783 0 00-.785.78v1.99a.786.786 0 101.571 0v-1.99a.784.784 0 00-.781-.78z" transform="translate(-803.812 -1020.56)"/><circle class="ecls-2" cx="43.938" cy="26.645" r="9.812"/></svg><svg viewBox="0 0 971.986 971.986" id="filter" xmlns="http://www.w3.org/2000/svg"><path d="M370.216 459.3c10.2 11.1 15.8 25.6 15.8 40.6v442c0 26.601 32.1 40.101 51.1 21.4l123.3-141.3c16.5-19.8 25.6-29.601 25.6-49.2V500c0-15 5.7-29.5 15.8-40.601L955.615 75.5c26.5-28.8 6.101-75.5-33.1-75.5h-873c-39.2 0-59.7 46.6-33.1 75.5l353.801 383.8z"/></svg><svg viewBox="0 0 359 359" id="grid-list" xmlns="http://www.w3.org/2000/svg"><path d="M96 0H13C7.5 0 3 4.5 3 10v83c0 5.5 4.5 10 10 10h83c5.5 0 10-4.5 10-10V10c0-5.5-4.5-10-10-10zm-9 84H23V20h64v64zM221 0h-83c-5.5 0-10 4.5-10 10v83c0 5.5 4.5 10 10 10h83c5.5 0 10-4.5 10-10V10c0-5.5-4.5-10-10-10zm-9 84h-64V20h64v64zM96 126H13c-5.5 0-10 4.5-10 10v83c0 5.5 4.5 10 10 10h83c5.5 0 10-4.5 10-10v-83c0-5.5-4.5-10-10-10zm-9 83H23v-63h64v63zM221 126h-83c-5.5 0-10 4.5-10 10v83c0 5.5 4.5 10 10 10h83c5.5 0 10-4.5 10-10v-83c0-5.5-4.5-10-10-10zm-9 83h-64v-63h64v63zM346 0h-83c-5.5 0-10 4.5-10 10v83c0 5.5 4.5 10 10 10h83c5.5 0 10-4.5 10-10V10c0-5.5-4.5-10-10-10zm-9 84h-64V20h64v64zM346 126h-83c-5.5 0-10 4.5-10 10v83c0 5.5 4.5 10 10 10h83c5.5 0 10-4.5 10-10v-83c0-5.5-4.5-10-10-10zm-9 83h-64v-63h64v63zM96 256H13c-5.5 0-10 4.5-10 10v83c0 5.5 4.5 10 10 10h83c5.5 0 10-4.5 10-10v-83c0-5.5-4.5-10-10-10zm-9 84H23v-64h64v64zM221 256h-83c-5.5 0-10 4.5-10 10v83c0 5.5 4.5 10 10 10h83c5.5 0 10-4.5 10-10v-83c0-5.5-4.5-10-10-10zm-9 84h-64v-64h64v64zM346 256h-83c-5.5 0-10 4.5-10 10v83c0 5.5 4.5 10 10 10h83c5.5 0 10-4.5 10-10v-83c0-5.5-4.5-10-10-10zm-9 84h-64v-64h64v64z"/></svg><svg viewBox="0 0 18 17" id="like" xmlns="http://www.w3.org/2000/svg"><path d="M8.913 16.244a.707.707 0 01-.28-.056c-.353-.15-8.65-3.75-8.65-10.76C.074 2.779 2.19.722 4.801.722c1.743 0 3.266.918 4.112 2.31a4.796 4.796 0 014.112-2.31c2.61 0 4.725 2.058 4.817 4.684 0 7.034-8.297 10.634-8.65 10.783a.71.71 0 01-.28.056zM4.8 2.106c-1.847 0-3.343 1.47-3.408 3.346 0 5.408 6.125 8.663 7.52 9.335 1.395-.672 7.52-3.93 7.52-9.358-.065-1.853-1.563-3.323-3.408-3.323s-3.342 1.47-3.408 3.346a.7.7 0 01-.704.67.7.7 0 01-.705-.67C8.143 3.576 6.646 2.106 4.8 2.106z"/></svg><svg viewBox="0 0 512 512" id="list" xmlns="http://www.w3.org/2000/svg"><path d="M492 236H144.262c-11.046 0-20 8.954-20 20s8.954 20 20 20H492c11.046 0 20-8.954 20-20s-8.954-20-20-20zM492 86H144.262c-11.046 0-20 8.954-20 20s8.954 20 20 20H492c11.046 0 20-8.954 20-20s-8.954-20-20-20zM492 386H144.262c-11.046 0-20 8.954-20 20s8.954 20 20 20H492c11.046 0 20-8.954 20-20s-8.954-20-20-20z"/><circle cx="27" cy="106" r="27"/><circle cx="27" cy="256" r="27"/><circle cx="27" cy="406" r="27"/></svg><svg id="logo" data-name="Группа 1" viewBox="0 0 146 38.875" xmlns="http://www.w3.org/2000/svg"><defs><style>.jcls-1{fill:#a3bbc8;fill-rule:evenodd}.jcls-2{font-size:36px;fill:#436372;font-family:Rubik;font-weight:500}</style></defs><path id="jPath_324" data-name="Path 324" class="jcls-1" d="M76.157 79.674a1.13 1.13 0 00.622.387l48.041 9.8a1.137 1.137 0 00.908-.212.874.874 0 00.31-.8l-6.251-37.079a.962.962 0 00-.449-.645 1.337 1.337 0 00-.965-.051L83.179 65.118a.9.9 0 00-.507.452c-.171.325-6.494 13.076-6.583 13.257a.806.806 0 00.068.847zm45.586 6.436l-20.05-11.145 10.339-2.159zm-37.7-18.883l12.526 6.983-17.833 3.715zm1.662-1.172l31.535-12.587-5.558 17.587-12.371 2.584zm37.658 18.995l-9.779-13.4 4.9-15.52zm-3.886 1.9l-38.051-7.763 17.523-3.65z" transform="translate(-76 -51)"/><text id="jGlee." class="jcls-2" x="62" y="32">Glee.</text></svg><svg viewBox="0 0 20.03 20.031" id="menu" xmlns="http://www.w3.org/2000/svg"><defs><style>.kcls-1{fill:#fff;fill-rule:evenodd}</style></defs><path class="kcls-1" d="M2.15 4.287a2.146 2.146 0 112.14-2.145 2.145 2.145 0 01-2.14 2.145zm0 7.869a2.146 2.146 0 112.14-2.147 2.146 2.146 0 01-2.14 2.147zm0 7.868a2.146 2.146 0 112.14-2.146 2.145 2.145 0 01-2.14 2.146zm7.86-15.737a2.146 2.146 0 112.15-2.145 2.143 2.143 0 01-2.15 2.145zm0 7.869a2.146 2.146 0 112.15-2.147 2.144 2.144 0 01-2.15 2.147zm0 7.868a2.146 2.146 0 112.15-2.146 2.143 2.143 0 01-2.15 2.146zm7.87-15.737a2.146 2.146 0 112.15-2.145 2.143 2.143 0 01-2.15 2.145zm0 7.869a2.146 2.146 0 112.15-2.147 2.144 2.144 0 01-2.15 2.147zm0 7.868a2.146 2.146 0 112.15-2.146 2.143 2.143 0 01-2.15 2.146z"/></svg><svg id="paymant" data-name="Группа 3" viewBox="0 0 53.56 52.25" xmlns="http://www.w3.org/2000/svg"><defs><style>.lcls-1,.lcls-2{fill:#a3bbc8}.lcls-1{fill-rule:evenodd}.lcls-2{opacity:.34}</style></defs><path id="lcredit-card" class="lcls-1" d="M1444.43 1042.32a.83.83 0 00-.84.83v8.27a2.164 2.164 0 01-2.16 2.16h-39.34a2.164 2.164 0 01-2.16-2.16v-11.92h27.29a.84.84 0 100-1.68h-27.29v-5.47h9.87a.828.828 0 00.83-.83.837.837 0 00-.83-.84h-9.87v-2.88a2.166 2.166 0 012.16-2.17h25.13a.835.835 0 100-1.67h-25.13a3.839 3.839 0 00-3.83 3.84v23.62a3.837 3.837 0 003.83 3.83h39.34a3.837 3.837 0 003.83-3.83v-8.27a.828.828 0 00-.83-.83zm-17.21-11.64H1413a.837.837 0 00-.83.84.828.828 0 00.83.83h14.22a.837.837 0 00.84-.83.845.845 0 00-.84-.84zm-9.24 11.56h-14.27a.835.835 0 000 1.67h14.27a.835.835 0 100-1.67zm-6.08 3.99h-8.19a.835.835 0 000 1.67h8.19a.835.835 0 000-1.67zm34.63-13.61a.832.832 0 00.84-.84v-4.77a3.038 3.038 0 00-2.39-2.97v-6.02a6.6 6.6 0 10-13.19 0v6.02a3.053 3.053 0 00-2.4 2.97v10.75a3.045 3.045 0 003.04 3.04h11.9a3.039 3.039 0 003.04-3.04v-3.19a.835.835 0 00-1.67 0v3.19a1.379 1.379 0 01-1.37 1.37h-11.9a1.379 1.379 0 01-1.37-1.37v-10.75a1.379 1.379 0 011.37-1.37h11.9a1.379 1.379 0 011.37 1.37v4.77a.83.83 0 00.83.84zm-3.23-8.65h-9.84v-5.95a4.92 4.92 0 119.84 0v5.95zm-4.92 4.32a3.092 3.092 0 00-.83 6.07v2.04a.83.83 0 00.83.84.839.839 0 00.84-.84v-2.04a3.094 3.094 0 00-.84-6.07zm0 4.52a1.425 1.425 0 111.42-1.43 1.428 1.428 0 01-1.42 1.43z" transform="translate(-1398.25 -1011.41)"/><circle class="lcls-2" cx="43.75" cy="42.45" r="9.81"/></svg><svg viewBox="0 0 22 25" id="play" xmlns="http://www.w3.org/2000/svg"><defs><style>.mcls-1{fill:#fff;fill-rule:evenodd}</style></defs><path id="mForm_24" data-name="Form 24" class="mcls-1" d="M970.684 3900.74l-16.044 9.8a3.228 3.228 0 01-3.062.14 2.685 2.685 0 01-1.579-2.39v-19.59a2.685 2.685 0 011.579-2.39 3.258 3.258 0 013.062.15l16.044 9.79a2.666 2.666 0 011.316 2.25 2.638 2.638 0 01-1.316 2.24z" transform="translate(-950 -3886)"/></svg><svg viewBox="0 0 15.28 15.281" id="search" xmlns="http://www.w3.org/2000/svg"><defs><style>.ncls-1{fill:#243f4d;fill-rule:evenodd}</style></defs><path id="nicon" class="ncls-1" d="M1547.7 72.076a.617.617 0 01.75.485 2.583 2.583 0 00.78 1.489 3.036 3.036 0 001.49.777.636.636 0 01.49.743.649.649 0 01-.72.515 4.21 4.21 0 01-2.14-1.13 4.164 4.164 0 01-1.13-2.136.6.6 0 01.48-.743zm3.28-6.076a6.267 6.267 0 016.28 6.257 6.136 6.136 0 01-.57 2.6l2.34 2.036c1.7 1.746.74 3.266.29 3.717-.42.454-1.99 1.414-3.73-.292l-2.06-2.35A6.261 6.261 0 111550.98 66zm5.55 13.517a1.352 1.352 0 001.88.226 1.313 1.313 0 00-.23-1.874l-2.16-1.88a6.236 6.236 0 01-1.37 1.34zm-5.55-2.312a4.948 4.948 0 10-4.97-4.948 4.963 4.963 0 004.97 4.943z" transform="translate(-1544.72 -66)"/></svg><svg id="support" data-name="Группа 1" viewBox="0 0 50.875 53.13" xmlns="http://www.w3.org/2000/svg"><defs><style>.ocls-1,.ocls-2{fill:#a3bbc8;fill-rule:evenodd}.ocls-1{opacity:.34}</style></defs><path class="ocls-1" d="M263.984 1044.59a9.815 9.815 0 11-9.8 9.82 9.811 9.811 0 019.8-9.82z" transform="translate(-222.906 -1011.09)"/><path class="ocls-2" d="M268.312 1022.67a.937.937 0 00-1.592.99 22.684 22.684 0 01-32.86 30.14.938.938 0 00-1.125 1.5 24.559 24.559 0 0035.577-32.63zm-23.03 21.94h-7.55l4.743-4.75a12.68 12.68 0 003.744-9.03 5.844 5.844 0 10-11.688 0 .938.938 0 001.875 0 3.969 3.969 0 117.938 0 10.836 10.836 0 01-3.195 7.71l-6.344 6.34a.949.949 0 00-.2 1.03.93.93 0 00.866.57h9.813a.935.935 0 10-.002-1.87zm15.039-6.44h-2.6v-1.52a.938.938 0 00-1.875 0v1.52h-5.286l5.286-8.85v4.21a.938.938 0 101.875 0v-7.62a.957.957 0 00-.456-.8.94.94 0 00-1.286.33l-7.875 13.19a.933.933 0 00-.011.94.951.951 0 00.816.48h6.938v5.5a.938.938 0 001.875 0v-5.5h2.6a.94.94 0 00-.001-1.88zm5.33-22.63a.938.938 0 10-1.875.04l.042 1.75a24.556 24.556 0 00-33.549 35.85.93.93 0 00.656.27.92.92 0 00.669-.28.942.942 0 00-.013-1.33 22.679 22.679 0 0115.882-38.87 22.745 22.745 0 0115.107 5.77l-1.843.04a.935.935 0 00.022 1.87h.023l4.06-.09a.934.934 0 00.915-.96z" transform="translate(-222.906 -1011.09)"/></svg><svg viewBox="0 0 785.816 1010" id="user" xmlns="http://www.w3.org/2000/svg"><g fill="#323B5A"><path d="M392.97 0c135.25 0 244.856 109.523 244.856 244.691 0 135.312-109.606 244.815-244.857 244.815-135.127 0-244.773-109.503-244.773-244.815C148.196 109.523 257.842 0 392.969 0zM785.816 1010H0V876.846c0-173.78 109.4-321.132 261.952-376.059L392.97 675.39l130.976-174.602c152.594 54.927 261.87 202.28 261.87 376.059V1010z"/></g></svg></svg>