<svg width="44" height="43" xmlns="http://www.w3.org/2000/svg" xmlns:xlink="http://www.w3.org/1999/xlink" xmlns:svgjs="http://svgjs.com/svgjs" viewBox="0 0.212 44 42.575" fill="#a3bbc8"><svg xmlns="http://www.w3.org/2000/svg" width="44" height="43" viewBox="1.363 1.755 41.767 40.414"><path paint-order="stroke fill markers" fill-rule="evenodd" d="M13.903 33.695c0-1.313.296-2.56.825-3.67L1.509 9.577a.918.918 0 0 1 .116-1.14l6.318-6.417a.885.885 0 0 1 .631-.266H35.92c.237 0 .464.096.63.266l6.32 6.418a.92.92 0 0 1 .115 1.14L29.765 30.024a8.53 8.53 0 0 1 .824 3.67c0 4.673-3.743 8.475-8.342 8.475-4.6 0-8.344-3.802-8.344-8.475zm1.785 0c0 3.674 2.942 6.662 6.559 6.662 3.615 0 6.557-2.988 6.557-6.662 0-3.672-2.942-6.661-6.557-6.661-3.617 0-6.559 2.989-6.559 6.661zm8.549-8.23a8.344 8.344 0 0 1 4.477 2.884l11.87-18.362h-6.339L24.237 25.465zm-8.458 2.883a8.347 8.347 0 0 1 4.477-2.883L10.247 9.987H3.91l11.87 18.36zm6.454-3.127h.027l9.85-15.234H12.382l9.85 15.234zM4.41 8.174h35.674l-4.535-4.606H8.943L4.41 8.174zm17.247 28.919V32.19h-.526a.9.9 0 0 1-.892-.906.9.9 0 0 1 .892-.908h1.419a.9.9 0 0 1 .892.908v5.808a.9.9 0 0 1-.892.906.9.9 0 0 1-.893-.906z"/></svg></svg>