<svg width="10" height="17" xmlns="http://www.w3.org/2000/svg" xmlns:xlink="http://www.w3.org/1999/xlink" xmlns:svgjs="http://svgjs.com/svgjs" viewBox="0.53 0 8.94 17"><svg xmlns="http://www.w3.org/2000/svg" width="10" height="17" viewBox="1.103 1.125 8.116 15.432"><path paint-order="stroke fill markers" fill-rule="evenodd" d="M7.19 1.125c.413 0 .828.022 1.24.04.268.011.537.05.789.077l-.02 2.485h-.197c-.272 0-.545-.003-.818-.003-.204 0-.409.001-.613.008-.659.022-1.144.27-1.177 1.092-.021.592-.036 1.9-.037 1.97l1.34.001c.327 0 .647 0 .87-.002H9.1c-.133.955-.255 1.87-.388 2.792H6.357l-.053 6.971h-2.89l.053-6.982H1.103l.021-2.776H3.5l.002-.208c.004-.56-.003-1.119.018-1.678.008-.351.027-.713.09-1.065.16-.85.555-1.563 1.267-2.073.623-.444 1.332-.63 2.084-.647.076-.002.153-.002.23-.002z"/></svg></svg>