<svg width="38" height="39" xmlns="http://www.w3.org/2000/svg" xmlns:xlink="http://www.w3.org/1999/xlink" xmlns:svgjs="http://svgjs.com/svgjs" viewBox="0.193 0 37.613 39" fill="#a3bbc8"><svg xmlns="http://www.w3.org/2000/svg" width="38" height="39" viewBox="1.002 1.239 36.38 37.722"><path paint-order="stroke fill markers" fill-rule="evenodd" d="M2.975 38.96a1.985 1.985 0 0 1-1.973-1.991V9.69c0-.24.095-.472.264-.643l7.476-7.542a.898.898 0 0 1 .639-.267h19.091c1.088 0 1.972.893 1.972 1.991v2.873c0 .502-.404.91-.902.91a.907.907 0 0 1-.902-.91V3.23a.169.169 0 0 0-.168-.17H10.284v5.552c0 1.097-.886 1.99-1.974 1.99H2.807V36.97c0 .093.076.17.168.17h25.497a.17.17 0 0 0 .168-.17V23.067c0-.502.404-.91.902-.91s.902.408.902.91V36.97a1.985 1.985 0 0 1-1.973 1.991H2.975zM4.083 8.782H8.31a.17.17 0 0 0 .168-.17V4.347L4.083 8.782zM8.06 32.49a.907.907 0 0 1-.901-.91c0-.503.404-.91.901-.91H12l1.394-5.066a.908.908 0 0 1 .231-.4l.014-.015H8.06a.906.906 0 0 1-.901-.91c0-.503.404-.91.901-.91h7.384l5.432-5.48H8.059a.906.906 0 0 1-.901-.91c0-.504.404-.911.901-.911H22.68l8.429-8.503a3.037 3.037 0 0 1 4.318 0l1.062 1.07a3.102 3.102 0 0 1 0 4.357l-17.485 17.64a.907.907 0 0 1-.396.234L12.91 32.46c-.028.007-.226.03-.226.03H8.059zm5.923-2.218l2.652-.744-1.916-1.933-.736 2.677zm1.556-4.424l2.827 2.853L32.8 14.14l-2.828-2.852-14.434 14.561zM32.384 8.852l-1.136 1.147 2.828 2.853 1.136-1.147a1.27 1.27 0 0 0 0-1.782L34.15 8.852a1.24 1.24 0 0 0-1.766 0z"/></svg></svg>