<svg width="65" height="58" xmlns="http://www.w3.org/2000/svg" xmlns:xlink="http://www.w3.org/1999/xlink" xmlns:svgjs="http://svgjs.com/svgjs" viewBox="0 0.055 65 57.89" fill="#243f4d"><svg xmlns="http://www.w3.org/2000/svg" width="65" height="58" viewBox="2 2 64 57"><path paint-order="stroke fill markers" fill-rule="evenodd" d="M62.635 2H5.365A3.365 3.365 0 0 0 2 5.357v41.142a3.365 3.365 0 0 0 3.365 3.357h21.691l-.877 7h-3.633a1.073 1.073 0 1 0 0 2.144h22.908a1.073 1.073 0 1 0 0-2.144H41.82l-.877-7h21.692A3.365 3.365 0 0 0 66 46.5V5.357A3.365 3.365 0 0 0 62.635 2zM28.344 56.857l.877-7h9.558l.877 7H28.344zm35.508-10.358c0 .67-.546 1.215-1.217 1.215H5.365a1.217 1.217 0 0 1-1.217-1.215V5.357c0-.67.545-1.215 1.217-1.215h57.27c.671 0 1.217.545 1.217 1.215v41.142zM52.327 6.571H7.655c-.593 0-1.073.48-1.073 1.072V43.07c0 .592.48 1.071 1.073 1.071h3.437c.593 0 1.074-.48 1.074-1.071S11.686 42 11.092 42H8.729V8.714h43.598a1.073 1.073 0 0 0 0-2.143zm8.017 0h-3.436a1.073 1.073 0 0 0 0 2.143h2.363V42H15.673a1.072 1.072 0 1 0 0 2.142h44.671c.593 0 1.074-.48 1.074-1.071V7.643c0-.592-.48-1.072-1.074-1.072zm-6.872 5.714a3.365 3.365 0 0 0-3.365 3.358c0 .57.144 1.105.395 1.576L41.9 26.31a3.355 3.355 0 0 0-3.721.614l-7.349-3.882a3.365 3.365 0 1 0-6.685-.541c0 .517.119 1.008.33 1.446l-8.407 8.141a3.365 3.365 0 0 0-4.904 2.984 3.365 3.365 0 0 0 6.73 0 3.33 3.33 0 0 0-.33-1.447l8.407-8.14a3.355 3.355 0 0 0 3.852-.55l7.348 3.881a3.365 3.365 0 1 0 6.685.542 3.33 3.33 0 0 0-.395-1.577l8.604-9.09a3.365 3.365 0 0 0 4.773-3.048 3.365 3.365 0 0 0-3.365-3.357zm-38.944 24a1.217 1.217 0 0 1-1.217-1.214 1.217 1.217 0 0 1 2.434 0c0 .67-.546 1.214-1.217 1.214zm12.981-12.571a1.217 1.217 0 0 1-1.217-1.214 1.217 1.217 0 0 1 2.434 0c0 .67-.546 1.214-1.217 1.214zm12.982 6.857a1.217 1.217 0 0 1-1.217-1.214 1.217 1.217 0 0 1 2.434 0c0 .67-.546 1.214-1.217 1.214zm12.98-13.714a1.217 1.217 0 0 1-1.216-1.214 1.217 1.217 0 0 1 2.434 0c0 .67-.546 1.214-1.217 1.214zm0 4.57c-.592 0-1.073.48-1.073 1.073v16c0 .591.48 1.07 1.074 1.07.593 0 1.074-.479 1.074-1.07v-16c0-.592-.481-1.072-1.074-1.072zM27.51 28.286c-.593 0-1.074.48-1.074 1.072V38.5c0 .591.481 1.071 1.074 1.071.593 0 1.074-.48 1.074-1.071v-9.143c0-.592-.48-1.072-1.074-1.072zm12.982 6.857c-.593 0-1.074.48-1.074 1.072V38.5c0 .591.48 1.071 1.074 1.071.593 0 1.073-.48 1.073-1.071v-2.286c0-.592-.48-1.072-1.073-1.072z"/></svg></svg>