<svg width="65" height="41" xmlns="http://www.w3.org/2000/svg" xmlns:xlink="http://www.w3.org/1999/xlink" xmlns:svgjs="http://svgjs.com/svgjs" viewBox="0 0.188 65 40.625" fill="#243f4d"><svg xmlns="http://www.w3.org/2000/svg" width="65" height="41" viewBox="2 2 64 40"><path paint-order="stroke fill markers" fill-rule="evenodd" d="M61.52 18.957l-1.658-6.55a.993.993 0 0 0 .793-.968v-1.056c0-2.293-1.888-4.159-4.208-4.159h-7.55V4.046c0-1.128-.928-2.046-2.07-2.046H8.347c-1.143 0-2.072.918-2.072 2.046V22c0 .547.449.99 1.003.99A.996.996 0 0 0 8.28 22V4.046c0-.037.03-.066.066-.066h38.48c.037 0 .067.03.067.066V22c0 .547.449.99 1.002.99a.996.996 0 0 0 1.003-.99v-1.122h11.826a3.275 3.275 0 0 1 3.114 2.244h-3.116a.996.996 0 0 0-1.002.99v2.112c0 1.71 1.408 3.103 3.14 3.103h1.136v4.356h-2.62a6.351 6.351 0 0 0-5.998-4.224 6.351 6.351 0 0 0-5.998 4.224h-.483v-7.459a.996.996 0 0 0-1.002-.99.996.996 0 0 0-1.002.99v7.459h-20.79a6.351 6.351 0 0 0-5.999-4.225 6.351 6.351 0 0 0-5.997 4.225h-5.76a.066.066 0 0 1-.067-.066v-2.179h4.342a.996.996 0 0 0 1.002-.99.996.996 0 0 0-1.002-.99h-9.62a.996.996 0 0 0-1.002.99c0 .547.449.99 1.002.99h3.274v2.179c0 1.128.929 2.046 2.07 2.046h5.414l-.002.066c0 3.458 2.847 6.27 6.346 6.27 3.5 0 6.347-2.812 6.347-6.27l-.002-.066h22.584l-.002.066c0 3.458 2.847 6.27 6.347 6.27 3.499 0 6.346-2.812 6.346-6.27l-.002-.066h3.276a.996.996 0 0 0 1.002-.99V24.112c0-2.608-1.947-4.774-4.48-5.155zM48.898 8.204h7.549c1.215 0 2.204.978 2.204 2.179v.066h-9.753V8.204zm0 10.694v-6.47h8.904l1.637 6.47H48.898zM20.104 40.02c-2.394 0-4.342-1.925-4.342-4.29 0-2.367 1.948-4.291 4.342-4.291 2.395 0 4.343 1.924 4.343 4.29s-1.948 4.29-4.343 4.29zm35.274 0c-2.395 0-4.343-1.925-4.343-4.29 0-2.367 1.948-4.291 4.343-4.291 2.394 0 4.342 1.924 4.342 4.29s-1.948 4.29-4.342 4.29zm8.618-12.674H62.86a1.13 1.13 0 0 1-1.136-1.122v-1.122h2.272v2.244zm-43.892 6.337c-1.142 0-2.07.918-2.07 2.046 0 1.129.928 2.047 2.07 2.047s2.071-.918 2.071-2.047c0-1.128-.929-2.046-2.07-2.046zm35.274 0c-1.142 0-2.071.918-2.071 2.046 0 1.129.929 2.047 2.07 2.047 1.143 0 2.072-.918 2.072-2.047 0-1.128-.93-2.046-2.071-2.046zM43.62 29.459H28.655a.996.996 0 0 0-1.002.99c0 .547.449.99 1.002.99H43.62a.996.996 0 0 0 1.002-.99.996.996 0 0 0-1.002-.99zm-25.653-4.225H5.14a.996.996 0 0 0-1.002.99c0 .547.448.99 1.002.99h12.827a.996.996 0 0 0 1.002-.99.996.996 0 0 0-1.002-.99zm18.88-13.44a1.01 1.01 0 0 0-1.418 0L26.518 20.6l-4.636-4.58a1.011 1.011 0 0 0-1.417 0 .982.982 0 0 0 0 1.4l5.344 5.281c.196.193.452.29.709.29.256 0 .513-.097.708-.29l9.62-9.505a.982.982 0 0 0 0-1.4z"/></svg></svg>