<svg width="68" height="65" xmlns="http://www.w3.org/2000/svg" xmlns:xlink="http://www.w3.org/1999/xlink" xmlns:svgjs="http://svgjs.com/svgjs" viewBox="0 0.017 68 64.965" fill="#243f4d"><svg xmlns="http://www.w3.org/2000/svg" width="68" height="65" viewBox="2.01 1.999 66.99 64"><path paint-order="stroke fill markers" fill-rule="evenodd" d="M59.057 55.461a4.351 4.351 0 0 0-2.212-3.23l-11.588-6.45a4.61 4.61 0 0 0-5.457.742l-4.07 4.027c-.833.825-2.167.928-3.104.24a73.962 73.962 0 0 1-8.167-7.005 73.673 73.673 0 0 1-7.078-8.082c-.696-.926-.592-2.247.241-3.073l4.07-4.026a4.49 4.49 0 0 0 .75-5.4l-6.519-11.467a4.396 4.396 0 0 0-3.263-2.188 4.698 4.698 0 0 0-3.962 1.339l-4.292 4.247c-3.032 3-3.191 8.372-.449 15.125 2.624 6.461 7.616 13.53 14.057 19.903 6.44 6.374 13.584 11.314 20.112 13.91C41.36 65.36 44.278 66 46.778 66c2.777 0 5.037-.792 6.633-2.371l4.292-4.247c1.06-1.05 1.554-2.478 1.354-3.92zm-2.889 2.402l-.75.742-9.879-5.332a1.091 1.091 0 0 0-1.472.428 1.068 1.068 0 0 0 .433 1.457l9.319 5.03-1.943 1.922c-2.344 2.32-7.06 2.309-12.94-.03-6.264-2.49-13.149-7.262-19.388-13.435C13.31 42.47 8.488 35.658 5.971 29.46c-2.363-5.82-2.374-10.487-.03-12.807l1.942-1.922 1.039 1.885a1.087 1.087 0 0 0 1.472.429c.526-.285.72-.937.433-1.457l-1.344-2.44.75-.741a2.548 2.548 0 0 1 2.131-.73c.713.096 1.32.502 1.668 1.113l6.518 11.467c.522.92.361 2.082-.393 2.828l-1.936 1.917-5.082-9.22a1.091 1.091 0 0 0-1.472-.428c-.526.284-.72.936-.433 1.457l5.387 9.773-.533.528c-1.589 1.572-1.782 4.097-.449 5.872a75.827 75.827 0 0 0 7.286 8.32 76.142 76.142 0 0 0 8.407 7.21c1.794 1.318 4.344 1.127 5.934-.445l.533-.528 2.464 1.33a1.087 1.087 0 0 0 1.472-.429 1.068 1.068 0 0 0-.433-1.456l-1.904-1.028 1.937-1.916a2.415 2.415 0 0 1 2.858-.389l11.588 6.45a2.22 2.22 0 0 1 1.125 1.65c.107.771-.162 1.54-.738 2.11zM54.025 29.49h-1.23v-9.235a1.08 1.08 0 0 0-1.085-1.074c-.599 0-1.085.481-1.085 1.074v9.235h-5.664l2.021-9.002a1.074 1.074 0 0 0-.824-1.28 1.085 1.085 0 0 0-1.295.814l-2.315 10.31c-.071.317.007.65.213.904s.518.402.847.402h7.017v3.508a1.08 1.08 0 0 0 1.085 1.073c.6 0 1.085-.48 1.085-1.073v-3.508h1.23c.6 0 1.085-.481 1.085-1.074a1.08 1.08 0 0 0-1.085-1.074zm-13.89 4.582H32.15c.472-1.23 1.808-2.013 3.735-3.053 2.378-1.284 5.337-2.882 5.337-6.51 0-2.937-2.564-5.328-5.715-5.328-3.152 0-5.715 2.39-5.715 5.329a1.08 1.08 0 0 0 1.085 1.074c.599 0 1.085-.481 1.085-1.074 0-1.754 1.59-3.18 3.545-3.18 1.954 0 3.544 1.426 3.544 3.18 0 2.194-1.589 3.21-4.206 4.624-2.369 1.279-5.054 2.729-5.054 6.012a1.08 1.08 0 0 0 1.086 1.073h9.26c.599 0 1.085-.48 1.085-1.073a1.08 1.08 0 0 0-1.085-1.074zm22.937 12.62l-2.113.418c5.135-4.936 8.04-11.686 8.04-18.837C69 13.786 57.09 2 42.45 2 33.823 2 25.702 6.173 20.73 13.163a1.067 1.067 0 0 0 .262 1.496c.49.341 1.167.225 1.512-.26C27.07 7.979 34.528 4.147 42.45 4.147c13.442 0 24.379 10.822 24.379 24.125 0 6.663-2.749 12.945-7.594 17.494l.483-2.393a1.075 1.075 0 0 0-.851-1.264 1.085 1.085 0 0 0-1.277.843l-1.157 5.727c-.071.352.04.716.296.97a1.093 1.093 0 0 0 .98.293l5.788-1.145c.588-.117.969-.682.851-1.264a1.086 1.086 0 0 0-1.277-.842zM42.45 6.58c-.599 0-1.085.48-1.085 1.074v2.29a1.08 1.08 0 0 0 1.085 1.075c.6 0 1.086-.481 1.086-1.074V7.655a1.08 1.08 0 0 0-1.086-1.074zm20.835 20.617H60.97c-.6 0-1.085.481-1.085 1.074a1.08 1.08 0 0 0 1.085 1.074h2.315c.6 0 1.085-.48 1.085-1.074a1.08 1.08 0 0 0-1.085-1.074zm-36.33-9.019l-2.005-1.145a1.091 1.091 0 0 0-1.482.393c-.3.513-.122 1.17.397 1.466l2.004 1.146a1.087 1.087 0 0 0 1.482-.393c.3-.514.123-1.17-.396-1.467zm34.081 19.472l-2.005-1.146a1.091 1.091 0 0 0-1.482.393c-.3.514-.122 1.17.397 1.467l2.005 1.145a1.087 1.087 0 0 0 1.482-.393c.3-.513.122-1.17-.397-1.466zM53.41 9.487a1.091 1.091 0 0 0-1.482.393l-1.157 1.984c-.3.514-.122 1.17.397 1.467a1.087 1.087 0 0 0 1.482-.393l1.158-1.984c.3-.513.121-1.17-.398-1.467zM33.733 43.213a1.092 1.092 0 0 0-1.482.393l-1.158 1.984c-.3.514-.121 1.17.398 1.467a1.089 1.089 0 0 0 1.482-.393l1.157-1.984c.3-.514.122-1.17-.397-1.467zm27.7-25.786c-.3-.514-.963-.69-1.482-.393l-2.005 1.145c-.519.297-.696.953-.397 1.467a1.086 1.086 0 0 0 1.483.393l2.004-1.145c.52-.297.697-.954.397-1.467zM27.352 36.898c-.3-.513-.964-.69-1.483-.393l-2.004 1.146c-.52.296-.697.953-.397 1.467a1.087 1.087 0 0 0 1.482.393l2.005-1.146c.519-.296.696-.953.397-1.467zm6.778-25.034L32.973 9.88c-.3-.513-.963-.69-1.482-.392a1.067 1.067 0 0 0-.397 1.466l1.157 1.984a1.087 1.087 0 0 0 1.482.393c.52-.296.697-.953.397-1.467zM53.807 45.59l-1.157-1.984c-.3-.513-.963-.69-1.482-.393a1.068 1.068 0 0 0-.397 1.467l1.157 1.984a1.087 1.087 0 0 0 1.482.393c.52-.297.697-.953.397-1.467z"/></svg></svg>